<svg width="704" height="28" viewBox="0 0 704 28" fill="none" xmlns="http://www.w3.org/2000/svg">
<rect width="704" height="28" fill="url(#paint0_linear_19684_22711)"/>
<path d="M10.5795 10.2102V9.27273H17.125V10.2102H14.3807V18H13.3239V10.2102H10.5795ZM17.94 18V11.4545H18.9116V12.4432H18.9798C19.0991 12.1193 19.315 11.8565 19.6275 11.6548C19.94 11.4531 20.2923 11.3523 20.6843 11.3523C20.7582 11.3523 20.8505 11.3537 20.9613 11.3565C21.0721 11.3594 21.1559 11.3636 21.2127 11.3693V12.392C21.1786 12.3835 21.1005 12.3707 20.9783 12.3537C20.859 12.3338 20.7326 12.3239 20.5991 12.3239C20.2809 12.3239 19.9968 12.3906 19.7468 12.5241C19.4996 12.6548 19.3036 12.8366 19.1587 13.0696C19.0167 13.2997 18.9457 13.5625 18.9457 13.858V18H17.94ZM24.331 18.1534C23.9162 18.1534 23.5398 18.0753 23.2017 17.919C22.8636 17.7599 22.5952 17.5312 22.3963 17.233C22.1974 16.9318 22.098 16.5682 22.098 16.142C22.098 15.767 22.1719 15.4631 22.3196 15.2301C22.4673 14.9943 22.6648 14.8097 22.9119 14.6761C23.1591 14.5426 23.4318 14.4432 23.7301 14.3778C24.0313 14.3097 24.3338 14.2557 24.6378 14.2159C25.0355 14.1648 25.358 14.1264 25.6051 14.1009C25.8551 14.0724 26.0369 14.0256 26.1506 13.9602C26.267 13.8949 26.3253 13.7812 26.3253 13.6193V13.5852C26.3253 13.1648 26.2102 12.8381 25.9801 12.6051C25.7528 12.3722 25.4077 12.2557 24.9446 12.2557C24.4645 12.2557 24.0881 12.3608 23.8153 12.571C23.5426 12.7812 23.3509 13.0057 23.2401 13.2443L22.2855 12.9034C22.456 12.5057 22.6832 12.196 22.9673 11.9744C23.2543 11.75 23.5668 11.5937 23.9048 11.5057C24.2457 11.4148 24.581 11.3693 24.9105 11.3693C25.1207 11.3693 25.3622 11.3949 25.6349 11.446C25.9105 11.4943 26.1761 11.5952 26.4318 11.7486C26.6903 11.902 26.9048 12.1335 27.0753 12.4432C27.2457 12.7528 27.331 13.1676 27.331 13.6875V18H26.3253V17.1136H26.2741C26.206 17.2557 26.0923 17.4077 25.9332 17.5696C25.7741 17.7315 25.5625 17.8693 25.2983 17.983C25.0341 18.0966 24.7116 18.1534 24.331 18.1534ZM24.4844 17.25C24.8821 17.25 25.2173 17.1719 25.4901 17.0156C25.7656 16.8594 25.973 16.6577 26.1122 16.4105C26.2543 16.1634 26.3253 15.9034 26.3253 15.6307V14.7102C26.2827 14.7614 26.1889 14.8082 26.044 14.8509C25.902 14.8906 25.7372 14.9261 25.5497 14.9574C25.3651 14.9858 25.1847 15.0114 25.0085 15.0341C24.8352 15.054 24.6946 15.071 24.5866 15.0852C24.3253 15.1193 24.081 15.1747 23.8537 15.2514C23.6293 15.3253 23.4474 15.4375 23.3082 15.5881C23.1719 15.7358 23.1037 15.9375 23.1037 16.1932C23.1037 16.5426 23.233 16.8068 23.4915 16.9858C23.7528 17.1619 24.0838 17.25 24.4844 17.25ZM31.6381 18.1364C31.0927 18.1364 30.6112 17.9986 30.1935 17.723C29.7759 17.4446 29.4492 17.0526 29.2134 16.5469C28.9776 16.0384 28.8597 15.4375 28.8597 14.7443C28.8597 14.0568 28.9776 13.4602 29.2134 12.9545C29.4492 12.4489 29.7773 12.0582 30.1978 11.7827C30.6183 11.5071 31.104 11.3693 31.6552 11.3693C32.0813 11.3693 32.418 11.4403 32.6651 11.5824C32.9151 11.7216 33.1055 11.8807 33.2362 12.0597C33.3697 12.2358 33.4734 12.3807 33.5472 12.4943H33.6325V9.27273H34.6381V18H33.6665V16.9943H33.5472C33.4734 17.1136 33.3683 17.2642 33.2319 17.446C33.0955 17.625 32.9009 17.7855 32.6481 17.9276C32.3952 18.0668 32.0586 18.1364 31.6381 18.1364ZM31.7745 17.233C32.1779 17.233 32.5188 17.1278 32.7972 16.9176C33.0756 16.7045 33.2873 16.4105 33.4322 16.0355C33.5771 15.6577 33.6495 15.2216 33.6495 14.7273C33.6495 14.2386 33.5785 13.8111 33.4364 13.4446C33.2944 13.0753 33.0842 12.7884 32.8058 12.5838C32.5273 12.3764 32.1836 12.2727 31.7745 12.2727C31.3484 12.2727 30.9933 12.3821 30.7092 12.6009C30.4279 12.8168 30.2163 13.1108 30.0742 13.483C29.935 13.8523 29.8654 14.267 29.8654 14.7273C29.8654 15.1932 29.9364 15.6165 30.0785 15.9972C30.2234 16.375 30.4364 16.6761 30.7177 16.9006C31.0018 17.1222 31.354 17.233 31.7745 17.233ZM39.364 18.1364C38.7333 18.1364 38.1893 17.9972 37.7319 17.7188C37.2773 17.4375 36.9265 17.0455 36.6793 16.5426C36.435 16.0369 36.3129 15.4489 36.3129 14.7784C36.3129 14.108 36.435 13.517 36.6793 13.0057C36.9265 12.4915 37.2702 12.0909 37.7106 11.804C38.1538 11.5142 38.6708 11.3693 39.2617 11.3693C39.6026 11.3693 39.9393 11.4261 40.2717 11.5398C40.604 11.6534 40.9066 11.8381 41.1793 12.0938C41.4521 12.3466 41.6694 12.6818 41.8313 13.0994C41.9933 13.517 42.0742 14.0312 42.0742 14.642V15.0682H37.0288V14.1989H41.0515C41.0515 13.8295 40.9776 13.5 40.8299 13.2102C40.685 12.9205 40.4776 12.6918 40.2077 12.5241C39.9407 12.3565 39.6254 12.2727 39.2617 12.2727C38.8612 12.2727 38.5146 12.3722 38.2219 12.571C37.9322 12.767 37.7092 13.0227 37.5529 13.3381C37.3967 13.6534 37.3185 13.9915 37.3185 14.3523V14.9318C37.3185 15.4261 37.4038 15.8452 37.5742 16.1889C37.7475 16.5298 37.9876 16.7898 38.2944 16.9688C38.6012 17.1449 38.9577 17.233 39.364 17.233C39.6282 17.233 39.8668 17.196 40.0799 17.1222C40.2958 17.0455 40.4819 16.9318 40.6381 16.7812C40.7944 16.6278 40.9151 16.4375 41.0004 16.2102L41.9719 16.483C41.8697 16.8125 41.6978 17.1023 41.4563 17.3523C41.2148 17.5994 40.9165 17.7926 40.5614 17.9318C40.2063 18.0682 39.8072 18.1364 39.364 18.1364ZM47.9847 14.0625V18H46.979V11.4545H47.9506V12.4773H48.0359C48.1893 12.1449 48.4222 11.8778 48.7347 11.6761C49.0472 11.4716 49.4506 11.3693 49.945 11.3693C50.3881 11.3693 50.7759 11.4602 51.1083 11.642C51.4407 11.821 51.6992 12.0938 51.8839 12.4602C52.0685 12.8239 52.1609 13.2841 52.1609 13.8409V18H51.1552V13.9091C51.1552 13.3949 51.0217 12.9943 50.7546 12.7074C50.4876 12.4176 50.1211 12.2727 49.6552 12.2727C49.3342 12.2727 49.0472 12.3423 48.7944 12.4815C48.5444 12.6207 48.3469 12.8239 48.2021 13.0909C48.0572 13.358 47.9847 13.6818 47.9847 14.0625ZM56.6577 18.1364C56.0668 18.1364 55.5483 17.9957 55.1023 17.7145C54.6591 17.4332 54.3125 17.0398 54.0625 16.5341C53.8153 16.0284 53.6918 15.4375 53.6918 14.7614C53.6918 14.0795 53.8153 13.4844 54.0625 12.9759C54.3125 12.4673 54.6591 12.0724 55.1023 11.7912C55.5483 11.5099 56.0668 11.3693 56.6577 11.3693C57.2486 11.3693 57.7656 11.5099 58.2088 11.7912C58.6548 12.0724 59.0014 12.4673 59.2486 12.9759C59.4986 13.4844 59.6236 14.0795 59.6236 14.7614C59.6236 15.4375 59.4986 16.0284 59.2486 16.5341C59.0014 17.0398 58.6548 17.4332 58.2088 17.7145C57.7656 17.9957 57.2486 18.1364 56.6577 18.1364ZM56.6577 17.233C57.1065 17.233 57.4759 17.1179 57.7656 16.8878C58.0554 16.6577 58.2699 16.3551 58.4091 15.9801C58.5483 15.6051 58.6179 15.1989 58.6179 14.7614C58.6179 14.3239 58.5483 13.9162 58.4091 13.5384C58.2699 13.1605 58.0554 12.8551 57.7656 12.6222C57.4759 12.3892 57.1065 12.2727 56.6577 12.2727C56.2088 12.2727 55.8395 12.3892 55.5497 12.6222C55.2599 12.8551 55.0455 13.1605 54.9062 13.5384C54.767 13.9162 54.6974 14.3239 54.6974 14.7614C54.6974 15.1989 54.767 15.6051 54.9062 15.9801C55.0455 16.3551 55.2599 16.6577 55.5497 16.8878C55.8395 17.1179 56.2088 17.233 56.6577 17.233ZM62.419 18L60.4247 11.4545H61.4815L62.8963 16.4659H62.9645L64.3622 11.4545H65.4361L66.8168 16.4489H66.8849L68.2997 11.4545H69.3565L67.3622 18H66.3736L64.9418 12.9716H64.8395L63.4077 18H62.419ZM76.9759 11.4545V12.3068H73.4474V11.4545H76.9759ZM74.5043 18V10.5511C74.5043 10.1761 74.5923 9.86364 74.7685 9.61364C74.9446 9.36364 75.1733 9.17614 75.4545 9.05114C75.7358 8.92614 76.0327 8.86364 76.3452 8.86364C76.5923 8.86364 76.794 8.88352 76.9503 8.9233C77.1065 8.96307 77.223 9 77.2997 9.03409L77.0099 9.90341C76.9588 9.88636 76.8878 9.86506 76.7969 9.83949C76.7088 9.81392 76.5923 9.80114 76.4474 9.80114C76.1151 9.80114 75.875 9.88494 75.7273 10.0526C75.5824 10.2202 75.5099 10.4659 75.5099 10.7898V18H74.5043ZM80.7749 18.1364C80.1839 18.1364 79.6655 17.9957 79.2195 17.7145C78.7763 17.4332 78.4297 17.0398 78.1797 16.5341C77.9325 16.0284 77.8089 15.4375 77.8089 14.7614C77.8089 14.0795 77.9325 13.4844 78.1797 12.9759C78.4297 12.4673 78.7763 12.0724 79.2195 11.7912C79.6655 11.5099 80.1839 11.3693 80.7749 11.3693C81.3658 11.3693 81.8828 11.5099 82.326 11.7912C82.772 12.0724 83.1186 12.4673 83.3658 12.9759C83.6158 13.4844 83.7408 14.0795 83.7408 14.7614C83.7408 15.4375 83.6158 16.0284 83.3658 16.5341C83.1186 17.0398 82.772 17.4332 82.326 17.7145C81.8828 17.9957 81.3658 18.1364 80.7749 18.1364ZM80.7749 17.233C81.2237 17.233 81.593 17.1179 81.8828 16.8878C82.1726 16.6577 82.3871 16.3551 82.5263 15.9801C82.6655 15.6051 82.7351 15.1989 82.7351 14.7614C82.7351 14.3239 82.6655 13.9162 82.5263 13.5384C82.3871 13.1605 82.1726 12.8551 81.8828 12.6222C81.593 12.3892 81.2237 12.2727 80.7749 12.2727C80.326 12.2727 79.9567 12.3892 79.6669 12.6222C79.3771 12.8551 79.1626 13.1605 79.0234 13.5384C78.8842 13.9162 78.8146 14.3239 78.8146 14.7614C78.8146 15.1989 78.8842 15.6051 79.0234 15.9801C79.1626 16.3551 79.3771 16.6577 79.6669 16.8878C79.9567 17.1179 80.326 17.233 80.7749 17.233ZM85.2759 18V11.4545H86.2475V12.4432H86.3157C86.435 12.1193 86.6509 11.8565 86.9634 11.6548C87.2759 11.4531 87.6282 11.3523 88.0202 11.3523C88.0941 11.3523 88.1864 11.3537 88.2972 11.3565C88.408 11.3594 88.4918 11.3636 88.5487 11.3693V12.392C88.5146 12.3835 88.4364 12.3707 88.3143 12.3537C88.195 12.3338 88.0685 12.3239 87.935 12.3239C87.6168 12.3239 87.3327 12.3906 87.0827 12.5241C86.8356 12.6548 86.6396 12.8366 86.4947 13.0696C86.3526 13.2997 86.2816 13.5625 86.2816 13.858V18H85.2759ZM95.0419 18.1534C94.6271 18.1534 94.2507 18.0753 93.9126 17.919C93.5746 17.7599 93.3061 17.5312 93.1072 17.233C92.9084 16.9318 92.8089 16.5682 92.8089 16.142C92.8089 15.767 92.8828 15.4631 93.0305 15.2301C93.1783 14.9943 93.3757 14.8097 93.6229 14.6761C93.87 14.5426 94.1428 14.4432 94.4411 14.3778C94.7422 14.3097 95.0447 14.2557 95.3487 14.2159C95.7464 14.1648 96.0689 14.1264 96.3161 14.1009C96.5661 14.0724 96.7479 14.0256 96.8615 13.9602C96.978 13.8949 97.0362 13.7812 97.0362 13.6193V13.5852C97.0362 13.1648 96.9212 12.8381 96.6911 12.6051C96.4638 12.3722 96.1186 12.2557 95.6555 12.2557C95.1754 12.2557 94.799 12.3608 94.5263 12.571C94.2536 12.7812 94.0618 13.0057 93.951 13.2443L92.9964 12.9034C93.1669 12.5057 93.3942 12.196 93.6783 11.9744C93.9652 11.75 94.2777 11.5937 94.6158 11.5057C94.9567 11.4148 95.2919 11.3693 95.6214 11.3693C95.8317 11.3693 96.0732 11.3949 96.3459 11.446C96.6214 11.4943 96.8871 11.5952 97.1428 11.7486C97.4013 11.902 97.6158 12.1335 97.7862 12.4432C97.9567 12.7528 98.0419 13.1676 98.0419 13.6875V18H97.0362V17.1136H96.9851C96.9169 17.2557 96.8033 17.4077 96.6442 17.5696C96.4851 17.7315 96.2734 17.8693 96.0092 17.983C95.745 18.0966 95.4226 18.1534 95.0419 18.1534ZM95.1953 17.25C95.593 17.25 95.9283 17.1719 96.201 17.0156C96.4766 16.8594 96.6839 16.6577 96.8232 16.4105C96.9652 16.1634 97.0362 15.9034 97.0362 15.6307V14.7102C96.9936 14.7614 96.8999 14.8082 96.755 14.8509C96.6129 14.8906 96.4482 14.9261 96.2607 14.9574C96.076 14.9858 95.8956 15.0114 95.7195 15.0341C95.5462 15.054 95.4055 15.071 95.2976 15.0852C95.0362 15.1193 94.7919 15.1747 94.5646 15.2514C94.3402 15.3253 94.1584 15.4375 94.0192 15.5881C93.8828 15.7358 93.8146 15.9375 93.8146 16.1932C93.8146 16.5426 93.9439 16.8068 94.2024 16.9858C94.4638 17.1619 94.7947 17.25 95.1953 17.25ZM176.256 18V9.27273H179.307C179.915 9.27273 180.417 9.37784 180.811 9.58807C181.206 9.79545 181.5 10.0753 181.694 10.4276C181.887 10.777 181.983 11.1648 181.983 11.5909C181.983 11.9659 181.917 12.2756 181.783 12.5199C181.652 12.7642 181.479 12.9574 181.263 13.0994C181.05 13.2415 180.819 13.3466 180.569 13.4148V13.5C180.836 13.517 181.104 13.6108 181.374 13.7812C181.644 13.9517 181.87 14.196 182.051 14.5142C182.233 14.8324 182.324 15.2216 182.324 15.6818C182.324 16.1193 182.225 16.5128 182.026 16.8622C181.827 17.2116 181.513 17.4886 181.084 17.6932C180.655 17.8977 180.097 18 179.409 18H176.256ZM177.313 17.0625H179.409C180.1 17.0625 180.59 16.929 180.88 16.6619C181.172 16.392 181.319 16.0653 181.319 15.6818C181.319 15.3864 181.243 15.1136 181.093 14.8636C180.942 14.6108 180.728 14.4091 180.449 14.2585C180.171 14.1051 179.841 14.0284 179.461 14.0284H177.313V17.0625ZM177.313 13.108H179.273C179.591 13.108 179.878 13.0455 180.134 12.9205C180.392 12.7955 180.597 12.6193 180.748 12.392C180.901 12.1648 180.978 11.8977 180.978 11.5909C180.978 11.2074 180.844 10.8821 180.577 10.6151C180.31 10.3452 179.887 10.2102 179.307 10.2102H177.313V13.108ZM186.669 18.1364C186.038 18.1364 185.494 17.9972 185.037 17.7188C184.582 17.4375 184.231 17.0455 183.984 16.5426C183.74 16.0369 183.618 15.4489 183.618 14.7784C183.618 14.108 183.74 13.517 183.984 13.0057C184.231 12.4915 184.575 12.0909 185.015 11.804C185.458 11.5142 185.975 11.3693 186.566 11.3693C186.907 11.3693 187.244 11.4261 187.576 11.5398C187.909 11.6534 188.211 11.8381 188.484 12.0938C188.757 12.3466 188.974 12.6818 189.136 13.0994C189.298 13.517 189.379 14.0312 189.379 14.642V15.0682H184.333V14.1989H188.356C188.356 13.8295 188.282 13.5 188.135 13.2102C187.99 12.9205 187.782 12.6918 187.512 12.5241C187.245 12.3565 186.93 12.2727 186.566 12.2727C186.166 12.2727 185.819 12.3722 185.527 12.571C185.237 12.767 185.014 13.0227 184.858 13.3381C184.701 13.6534 184.623 13.9915 184.623 14.3523V14.9318C184.623 15.4261 184.708 15.8452 184.879 16.1889C185.052 16.5298 185.292 16.7898 185.599 16.9688C185.906 17.1449 186.262 17.233 186.669 17.233C186.933 17.233 187.172 17.196 187.385 17.1222C187.6 17.0455 187.787 16.9318 187.943 16.7812C188.099 16.6278 188.22 16.4375 188.305 16.2102L189.277 16.483C189.174 16.8125 189.002 17.1023 188.761 17.3523C188.52 17.5994 188.221 17.7926 187.866 17.9318C187.511 18.0682 187.112 18.1364 186.669 18.1364ZM195.545 12.9205L194.642 13.1761C194.585 13.0256 194.501 12.8793 194.39 12.7372C194.282 12.5923 194.135 12.473 193.947 12.3793C193.76 12.2855 193.52 12.2386 193.227 12.2386C192.826 12.2386 192.493 12.331 192.225 12.5156C191.961 12.6974 191.829 12.929 191.829 13.2102C191.829 13.4602 191.92 13.6577 192.102 13.8026C192.284 13.9474 192.568 14.0682 192.954 14.1648L193.926 14.4034C194.511 14.5455 194.947 14.7628 195.234 15.0554C195.521 15.3452 195.664 15.7187 195.664 16.1761C195.664 16.5511 195.556 16.8864 195.341 17.1818C195.127 17.4773 194.829 17.7102 194.446 17.8807C194.062 18.0511 193.616 18.1364 193.108 18.1364C192.44 18.1364 191.887 17.9915 191.45 17.7017C191.012 17.4119 190.735 16.9886 190.619 16.4318L191.574 16.1932C191.664 16.5455 191.836 16.8097 192.089 16.9858C192.345 17.1619 192.679 17.25 193.091 17.25C193.559 17.25 193.931 17.1506 194.207 16.9517C194.485 16.75 194.625 16.5085 194.625 16.2273C194.625 16 194.545 15.8097 194.386 15.6562C194.227 15.5 193.983 15.3835 193.653 15.3068L192.562 15.0511C191.963 14.9091 191.522 14.6889 191.241 14.3906C190.963 14.0895 190.824 13.7131 190.824 13.2614C190.824 12.892 190.927 12.5653 191.135 12.2812C191.345 11.9972 191.63 11.7741 191.991 11.6122C192.355 11.4503 192.767 11.3693 193.227 11.3693C193.875 11.3693 194.383 11.5114 194.752 11.7955C195.125 12.0795 195.389 12.4545 195.545 12.9205ZM200.025 11.4545V12.3068H196.633V11.4545H200.025ZM197.621 9.88636H198.627V16.125C198.627 16.4091 198.668 16.6222 198.751 16.7642C198.836 16.9034 198.944 16.9972 199.075 17.0455C199.208 17.0909 199.349 17.1136 199.496 17.1136C199.607 17.1136 199.698 17.108 199.769 17.0966C199.84 17.0824 199.897 17.071 199.94 17.0625L200.144 17.9659C200.076 17.9915 199.981 18.017 199.859 18.0426C199.737 18.071 199.582 18.0852 199.394 18.0852C199.11 18.0852 198.832 18.0241 198.559 17.902C198.289 17.7798 198.065 17.5938 197.886 17.3438C197.71 17.0938 197.621 16.7784 197.621 16.3977V9.88636ZM209.549 12.9205L208.646 13.1761C208.589 13.0256 208.505 12.8793 208.394 12.7372C208.286 12.5923 208.138 12.473 207.951 12.3793C207.763 12.2855 207.523 12.2386 207.231 12.2386C206.83 12.2386 206.496 12.331 206.229 12.5156C205.965 12.6974 205.833 12.929 205.833 13.2102C205.833 13.4602 205.924 13.6577 206.106 13.8026C206.288 13.9474 206.572 14.0682 206.958 14.1648L207.93 14.4034C208.515 14.5455 208.951 14.7628 209.238 15.0554C209.525 15.3452 209.668 15.7187 209.668 16.1761C209.668 16.5511 209.56 16.8864 209.344 17.1818C209.131 17.4773 208.833 17.7102 208.45 17.8807C208.066 18.0511 207.62 18.1364 207.112 18.1364C206.444 18.1364 205.891 17.9915 205.454 17.7017C205.016 17.4119 204.739 16.9886 204.623 16.4318L205.577 16.1932C205.668 16.5455 205.84 16.8097 206.093 16.9858C206.349 17.1619 206.683 17.25 207.094 17.25C207.563 17.25 207.935 17.1506 208.211 16.9517C208.489 16.75 208.629 16.5085 208.629 16.2273C208.629 16 208.549 15.8097 208.39 15.6562C208.231 15.5 207.987 15.3835 207.657 15.3068L206.566 15.0511C205.967 14.9091 205.526 14.6889 205.245 14.3906C204.967 14.0895 204.827 13.7131 204.827 13.2614C204.827 12.892 204.931 12.5653 205.138 12.2812C205.349 11.9972 205.634 11.7741 205.995 11.6122C206.359 11.4503 206.771 11.3693 207.231 11.3693C207.879 11.3693 208.387 11.5114 208.756 11.7955C209.129 12.0795 209.393 12.4545 209.549 12.9205ZM212.12 15.6136L212.103 14.3693H212.307L215.171 11.4545H216.415L213.364 14.5398H213.279L212.12 15.6136ZM211.182 18V9.27273H212.188V18H211.182ZM215.341 18L212.784 14.7614L213.5 14.0625L216.62 18H215.341ZM217.71 18V11.4545H218.715V18H217.71ZM218.221 10.3636C218.025 10.3636 217.856 10.2969 217.714 10.1634C217.575 10.0298 217.505 9.86932 217.505 9.68182C217.505 9.49432 217.575 9.33381 217.714 9.20028C217.856 9.06676 218.025 9 218.221 9C218.417 9 218.585 9.06676 218.724 9.20028C218.866 9.33381 218.937 9.49432 218.937 9.68182C218.937 9.86932 218.866 10.0298 218.724 10.1634C218.585 10.2969 218.417 10.3636 218.221 10.3636ZM221.563 14.0625V18H220.557V11.4545H221.529V12.4773H221.614C221.767 12.1449 222 11.8778 222.313 11.6761C222.625 11.4716 223.029 11.3693 223.523 11.3693C223.966 11.3693 224.354 11.4602 224.686 11.642C225.019 11.821 225.277 12.0938 225.462 12.4602C225.647 12.8239 225.739 13.2841 225.739 13.8409V18H224.733V13.9091C224.733 13.3949 224.6 12.9943 224.333 12.7074C224.066 12.4176 223.699 12.2727 223.233 12.2727C222.912 12.2727 222.625 12.3423 222.373 12.4815C222.123 12.6207 221.925 12.8239 221.78 13.0909C221.635 13.358 221.563 13.6818 221.563 14.0625ZM233.798 11.4545V12.3068H230.406V11.4545H233.798ZM231.395 9.88636H232.401V16.125C232.401 16.4091 232.442 16.6222 232.524 16.7642C232.609 16.9034 232.717 16.9972 232.848 17.0455C232.982 17.0909 233.122 17.1136 233.27 17.1136C233.381 17.1136 233.472 17.108 233.543 17.0966C233.614 17.0824 233.67 17.071 233.713 17.0625L233.918 17.9659C233.849 17.9915 233.754 18.017 233.632 18.0426C233.51 18.071 233.355 18.0852 233.168 18.0852C232.884 18.0852 232.605 18.0241 232.332 17.902C232.063 17.7798 231.838 17.5938 231.659 17.3438C231.483 17.0938 231.395 16.7784 231.395 16.3977V9.88636ZM235.311 18V11.4545H236.283V12.4432H236.351C236.47 12.1193 236.686 11.8565 236.999 11.6548C237.311 11.4531 237.663 11.3523 238.055 11.3523C238.129 11.3523 238.222 11.3537 238.332 11.3565C238.443 11.3594 238.527 11.3636 238.584 11.3693V12.392C238.55 12.3835 238.472 12.3707 238.349 12.3537C238.23 12.3338 238.104 12.3239 237.97 12.3239C237.652 12.3239 237.368 12.3906 237.118 12.5241C236.871 12.6548 236.675 12.8366 236.53 13.0696C236.388 13.2997 236.317 13.5625 236.317 13.858V18H235.311ZM241.702 18.1534C241.287 18.1534 240.911 18.0753 240.573 17.919C240.235 17.7599 239.966 17.5312 239.767 17.233C239.569 16.9318 239.469 16.5682 239.469 16.142C239.469 15.767 239.543 15.4631 239.691 15.2301C239.838 14.9943 240.036 14.8097 240.283 14.6761C240.53 14.5426 240.803 14.4432 241.101 14.3778C241.402 14.3097 241.705 14.2557 242.009 14.2159C242.407 14.1648 242.729 14.1264 242.976 14.1009C243.226 14.0724 243.408 14.0256 243.522 13.9602C243.638 13.8949 243.696 13.7812 243.696 13.6193V13.5852C243.696 13.1648 243.581 12.8381 243.351 12.6051C243.124 12.3722 242.779 12.2557 242.316 12.2557C241.836 12.2557 241.459 12.3608 241.186 12.571C240.914 12.7812 240.722 13.0057 240.611 13.2443L239.657 12.9034C239.827 12.5057 240.054 12.196 240.338 11.9744C240.625 11.75 240.938 11.5937 241.276 11.5057C241.617 11.4148 241.952 11.3693 242.282 11.3693C242.492 11.3693 242.733 11.3949 243.006 11.446C243.282 11.4943 243.547 11.5952 243.803 11.7486C244.061 11.902 244.276 12.1335 244.446 12.4432C244.617 12.7528 244.702 13.1676 244.702 13.6875V18H243.696V17.1136H243.645C243.577 17.2557 243.463 17.4077 243.304 17.5696C243.145 17.7315 242.934 17.8693 242.669 17.983C242.405 18.0966 242.083 18.1534 241.702 18.1534ZM241.855 17.25C242.253 17.25 242.588 17.1719 242.861 17.0156C243.137 16.8594 243.344 16.6577 243.483 16.4105C243.625 16.1634 243.696 15.9034 243.696 15.6307V14.7102C243.654 14.7614 243.56 14.8082 243.415 14.8509C243.273 14.8906 243.108 14.9261 242.921 14.9574C242.736 14.9858 242.556 15.0114 242.38 15.0341C242.206 15.054 242.066 15.071 241.958 15.0852C241.696 15.1193 241.452 15.1747 241.225 15.2514C241 15.3253 240.819 15.4375 240.679 15.5881C240.543 15.7358 240.475 15.9375 240.475 16.1932C240.475 16.5426 240.604 16.8068 240.863 16.9858C241.124 17.1619 241.455 17.25 241.855 17.25ZM249.009 18.1364C248.464 18.1364 247.982 17.9986 247.565 17.723C247.147 17.4446 246.82 17.0526 246.585 16.5469C246.349 16.0384 246.231 15.4375 246.231 14.7443C246.231 14.0568 246.349 13.4602 246.585 12.9545C246.82 12.4489 247.148 12.0582 247.569 11.7827C247.989 11.5071 248.475 11.3693 249.026 11.3693C249.452 11.3693 249.789 11.4403 250.036 11.5824C250.286 11.7216 250.477 11.8807 250.607 12.0597C250.741 12.2358 250.844 12.3807 250.918 12.4943H251.004V9.27273H252.009V18H251.038V16.9943H250.918C250.844 17.1136 250.739 17.2642 250.603 17.446C250.467 17.625 250.272 17.7855 250.019 17.9276C249.766 18.0668 249.43 18.1364 249.009 18.1364ZM249.146 17.233C249.549 17.233 249.89 17.1278 250.168 16.9176C250.447 16.7045 250.658 16.4105 250.803 16.0355C250.948 15.6577 251.021 15.2216 251.021 14.7273C251.021 14.2386 250.95 13.8111 250.808 13.4446C250.665 13.0753 250.455 12.7884 250.177 12.5838C249.898 12.3764 249.555 12.2727 249.146 12.2727C248.719 12.2727 248.364 12.3821 248.08 12.6009C247.799 12.8168 247.587 13.1108 247.445 13.483C247.306 13.8523 247.237 14.267 247.237 14.7273C247.237 15.1932 247.308 15.6165 247.45 15.9972C247.594 16.375 247.808 16.6761 248.089 16.9006C248.373 17.1222 248.725 17.233 249.146 17.233ZM253.991 18V11.4545H254.996V18H253.991ZM254.502 10.3636C254.306 10.3636 254.137 10.2969 253.995 10.1634C253.856 10.0298 253.786 9.86932 253.786 9.68182C253.786 9.49432 253.856 9.33381 253.995 9.20028C254.137 9.06676 254.306 9 254.502 9C254.698 9 254.866 9.06676 255.005 9.20028C255.147 9.33381 255.218 9.49432 255.218 9.68182C255.218 9.86932 255.147 10.0298 255.005 10.1634C254.866 10.2969 254.698 10.3636 254.502 10.3636ZM257.844 14.0625V18H256.838V11.4545H257.81V12.4773H257.895C258.049 12.1449 258.282 11.8778 258.594 11.6761C258.907 11.4716 259.31 11.3693 259.804 11.3693C260.248 11.3693 260.635 11.4602 260.968 11.642C261.3 11.821 261.559 12.0938 261.743 12.4602C261.928 12.8239 262.02 13.2841 262.02 13.8409V18H261.015V13.9091C261.015 13.3949 260.881 12.9943 260.614 12.7074C260.347 12.4176 259.98 12.2727 259.515 12.2727C259.194 12.2727 258.907 12.3423 258.654 12.4815C258.404 12.6207 258.206 12.8239 258.061 13.0909C257.917 13.358 257.844 13.6818 257.844 14.0625ZM266.5 20.5909C266.014 20.5909 265.597 20.5284 265.247 20.4034C264.898 20.2812 264.607 20.1193 264.374 19.9176C264.143 19.7188 263.96 19.5057 263.824 19.2784L264.625 18.7159C264.716 18.8352 264.831 18.9716 264.97 19.125C265.109 19.2812 265.3 19.4162 265.541 19.5298C265.786 19.6463 266.105 19.7045 266.5 19.7045C267.028 19.7045 267.464 19.5767 267.808 19.321C268.152 19.0653 268.324 18.6648 268.324 18.1193V16.7898H268.239C268.165 16.9091 268.06 17.0568 267.923 17.233C267.79 17.4062 267.597 17.5611 267.344 17.6974C267.094 17.831 266.756 17.8977 266.33 17.8977C265.801 17.8977 265.327 17.7727 264.906 17.5227C264.489 17.2727 264.158 16.9091 263.913 16.4318C263.672 15.9545 263.551 15.375 263.551 14.6932C263.551 14.0227 263.669 13.4389 263.905 12.9418C264.141 12.4418 264.469 12.0554 264.889 11.7827C265.31 11.5071 265.795 11.3693 266.347 11.3693C266.773 11.3693 267.111 11.4403 267.361 11.5824C267.614 11.7216 267.807 11.8807 267.94 12.0597C268.077 12.2358 268.182 12.3807 268.256 12.4943H268.358V11.4545H269.33V18.1875C269.33 18.75 269.202 19.2074 268.946 19.5597C268.693 19.9148 268.352 20.1747 267.923 20.3395C267.497 20.5071 267.023 20.5909 266.5 20.5909ZM266.466 16.9943C266.869 16.9943 267.21 16.902 267.489 16.7173C267.767 16.5327 267.979 16.267 268.124 15.9205C268.268 15.5739 268.341 15.1591 268.341 14.6761C268.341 14.2045 268.27 13.7884 268.128 13.4276C267.986 13.0668 267.776 12.7841 267.497 12.5795C267.219 12.375 266.875 12.2727 266.466 12.2727C266.04 12.2727 265.685 12.3807 265.401 12.5966C265.119 12.8125 264.908 13.1023 264.766 13.4659C264.626 13.8295 264.557 14.233 264.557 14.6761C264.557 15.1307 264.628 15.5327 264.77 15.8821C264.915 16.2287 265.128 16.5014 265.409 16.7003C265.693 16.8963 266.045 16.9943 266.466 16.9943ZM279.182 12.9205L278.278 13.1761C278.222 13.0256 278.138 12.8793 278.027 12.7372C277.919 12.5923 277.771 12.473 277.584 12.3793C277.396 12.2855 277.156 12.2386 276.864 12.2386C276.463 12.2386 276.129 12.331 275.862 12.5156C275.598 12.6974 275.466 12.929 275.466 13.2102C275.466 13.4602 275.557 13.6577 275.739 13.8026C275.92 13.9474 276.205 14.0682 276.591 14.1648L277.562 14.4034C278.148 14.5455 278.584 14.7628 278.871 15.0554C279.158 15.3452 279.301 15.7187 279.301 16.1761C279.301 16.5511 279.193 16.8864 278.977 17.1818C278.764 17.4773 278.466 17.7102 278.082 17.8807C277.699 18.0511 277.253 18.1364 276.744 18.1364C276.077 18.1364 275.524 17.9915 275.087 17.7017C274.649 17.4119 274.372 16.9886 274.256 16.4318L275.21 16.1932C275.301 16.5455 275.473 16.8097 275.726 16.9858C275.982 17.1619 276.315 17.25 276.727 17.25C277.196 17.25 277.568 17.1506 277.844 16.9517C278.122 16.75 278.261 16.5085 278.261 16.2273C278.261 16 278.182 15.8097 278.023 15.6562C277.864 15.5 277.619 15.3835 277.29 15.3068L276.199 15.0511C275.599 14.9091 275.159 14.6889 274.878 14.3906C274.599 14.0895 274.46 13.7131 274.46 13.2614C274.46 12.892 274.564 12.5653 274.771 12.2812C274.982 11.9972 275.267 11.7741 275.628 11.6122C275.991 11.4503 276.403 11.3693 276.864 11.3693C277.511 11.3693 278.02 11.5114 278.389 11.7955C278.761 12.0795 279.026 12.4545 279.182 12.9205ZM280.815 18V11.4545H281.821V18H280.815ZM281.326 10.3636C281.13 10.3636 280.961 10.2969 280.819 10.1634C280.68 10.0298 280.61 9.86932 280.61 9.68182C280.61 9.49432 280.68 9.33381 280.819 9.20028C280.961 9.06676 281.13 9 281.326 9C281.522 9 281.69 9.06676 281.829 9.20028C281.971 9.33381 282.042 9.49432 282.042 9.68182C282.042 9.86932 281.971 10.0298 281.829 10.1634C281.69 10.2969 281.522 10.3636 281.326 10.3636ZM286.509 11.4545V12.3068H283.117V11.4545H286.509ZM284.106 9.88636H285.112V16.125C285.112 16.4091 285.153 16.6222 285.235 16.7642C285.32 16.9034 285.428 16.9972 285.559 17.0455C285.692 17.0909 285.833 17.1136 285.981 17.1136C286.092 17.1136 286.183 17.108 286.254 17.0966C286.325 17.0824 286.381 17.071 286.424 17.0625L286.629 17.9659C286.56 17.9915 286.465 18.017 286.343 18.0426C286.221 18.071 286.066 18.0852 285.879 18.0852C285.594 18.0852 285.316 18.0241 285.043 17.902C284.773 17.7798 284.549 17.5938 284.37 17.3438C284.194 17.0938 284.106 16.7784 284.106 16.3977V9.88636ZM290.696 18.1364C290.065 18.1364 289.521 17.9972 289.064 17.7188C288.609 17.4375 288.259 17.0455 288.011 16.5426C287.767 16.0369 287.645 15.4489 287.645 14.7784C287.645 14.108 287.767 13.517 288.011 13.0057C288.259 12.4915 288.602 12.0909 289.043 11.804C289.486 11.5142 290.003 11.3693 290.594 11.3693C290.935 11.3693 291.271 11.4261 291.604 11.5398C291.936 11.6534 292.239 11.8381 292.511 12.0938C292.784 12.3466 293.001 12.6818 293.163 13.0994C293.325 13.517 293.406 14.0312 293.406 14.642V15.0682H288.361V14.1989H292.384C292.384 13.8295 292.31 13.5 292.162 13.2102C292.017 12.9205 291.81 12.6918 291.54 12.5241C291.273 12.3565 290.957 12.2727 290.594 12.2727C290.193 12.2727 289.847 12.3722 289.554 12.571C289.264 12.767 289.041 13.0227 288.885 13.3381C288.729 13.6534 288.651 13.9915 288.651 14.3523V14.9318C288.651 15.4261 288.736 15.8452 288.906 16.1889C289.08 16.5298 289.32 16.7898 289.626 16.9688C289.933 17.1449 290.29 17.233 290.696 17.233C290.96 17.233 291.199 17.196 291.412 17.1222C291.628 17.0455 291.814 16.9318 291.97 16.7812C292.126 16.6278 292.247 16.4375 292.332 16.2102L293.304 16.483C293.202 16.8125 293.03 17.1023 292.788 17.3523C292.547 17.5994 292.249 17.7926 291.893 17.9318C291.538 18.0682 291.139 18.1364 290.696 18.1364ZM299.794 18L297.8 11.4545H298.857L300.271 16.4659H300.339L301.737 11.4545H302.811L304.192 16.4489H304.26L305.675 11.4545H306.732L304.737 18H303.749L302.317 12.9716H302.214L300.783 18H299.794ZM308.061 18V11.4545H309.067V18H308.061ZM308.572 10.3636C308.376 10.3636 308.207 10.2969 308.065 10.1634C307.926 10.0298 307.857 9.86932 307.857 9.68182C307.857 9.49432 307.926 9.33381 308.065 9.20028C308.207 9.06676 308.376 9 308.572 9C308.768 9 308.936 9.06676 309.075 9.20028C309.217 9.33381 309.288 9.49432 309.288 9.68182C309.288 9.86932 309.217 10.0298 309.075 10.1634C308.936 10.2969 308.768 10.3636 308.572 10.3636ZM313.755 11.4545V12.3068H310.363V11.4545H313.755ZM311.352 9.88636H312.358V16.125C312.358 16.4091 312.399 16.6222 312.481 16.7642C312.566 16.9034 312.674 16.9972 312.805 17.0455C312.939 17.0909 313.079 17.1136 313.227 17.1136C313.338 17.1136 313.429 17.108 313.5 17.0966C313.571 17.0824 313.627 17.071 313.67 17.0625L313.875 17.9659C313.806 17.9915 313.711 18.017 313.589 18.0426C313.467 18.071 313.312 18.0852 313.125 18.0852C312.841 18.0852 312.562 18.0241 312.289 17.902C312.02 17.7798 311.795 17.5938 311.616 17.3438C311.44 17.0938 311.352 16.7784 311.352 16.3977V9.88636ZM316.414 14.0625V18H315.409V9.27273H316.414V12.4773H316.5C316.653 12.1392 316.883 11.8707 317.19 11.6719C317.5 11.4702 317.912 11.3693 318.426 11.3693C318.872 11.3693 319.262 11.4588 319.598 11.6378C319.933 11.8139 320.193 12.0852 320.377 12.4517C320.565 12.8153 320.659 13.2784 320.659 13.8409V18H319.653V13.9091C319.653 13.3892 319.518 12.9872 319.248 12.7031C318.981 12.4162 318.61 12.2727 318.136 12.2727C317.806 12.2727 317.511 12.3423 317.25 12.4815C316.991 12.6207 316.787 12.8239 316.636 13.0909C316.488 13.358 316.414 13.6818 316.414 14.0625ZM396.112 18V9.27273H399.163C399.771 9.27273 400.272 9.37784 400.667 9.58807C401.062 9.79545 401.356 10.0753 401.549 10.4276C401.742 10.777 401.839 11.1648 401.839 11.5909C401.839 11.9659 401.772 12.2756 401.638 12.5199C401.508 12.7642 401.335 12.9574 401.119 13.0994C400.906 13.2415 400.674 13.3466 400.424 13.4148V13.5C400.691 13.517 400.96 13.6108 401.229 13.7812C401.499 13.9517 401.725 14.196 401.907 14.5142C402.089 14.8324 402.18 15.2216 402.18 15.6818C402.18 16.1193 402.08 16.5128 401.881 16.8622C401.683 17.2116 401.369 17.4886 400.94 17.6932C400.511 17.8977 399.952 18 399.265 18H396.112ZM397.168 17.0625H399.265C399.955 17.0625 400.445 16.929 400.735 16.6619C401.028 16.392 401.174 16.0653 401.174 15.6818C401.174 15.3864 401.099 15.1136 400.948 14.8636C400.798 14.6108 400.583 14.4091 400.305 14.2585C400.026 14.1051 399.697 14.0284 399.316 14.0284H397.168V17.0625ZM397.168 13.108H399.129C399.447 13.108 399.734 13.0455 399.989 12.9205C400.248 12.7955 400.452 12.6193 400.603 12.392C400.756 12.1648 400.833 11.8977 400.833 11.5909C400.833 11.2074 400.7 10.8821 400.433 10.6151C400.165 10.3452 399.742 10.2102 399.163 10.2102H397.168V13.108ZM407.905 15.3239V11.4545H408.911V18H407.905V16.892H407.837C407.683 17.2244 407.445 17.5071 407.121 17.7401C406.797 17.9702 406.388 18.0852 405.893 18.0852C405.484 18.0852 405.121 17.9957 404.803 17.8168C404.484 17.6349 404.234 17.3622 404.053 16.9986C403.871 16.6321 403.78 16.1705 403.78 15.6136V11.4545H404.786V15.5455C404.786 16.0227 404.919 16.4034 405.186 16.6875C405.456 16.9716 405.8 17.1136 406.217 17.1136C406.467 17.1136 406.722 17.0497 406.98 16.9219C407.241 16.794 407.46 16.598 407.636 16.3338C407.815 16.0696 407.905 15.733 407.905 15.3239ZM411.4 20.4545C411.23 20.4545 411.078 20.4403 410.944 20.4119C410.811 20.3864 410.718 20.3608 410.667 20.3352L410.923 19.4489C411.167 19.5114 411.383 19.5341 411.571 19.517C411.758 19.5 411.924 19.4162 412.069 19.2656C412.217 19.1179 412.352 18.8778 412.474 18.5455L412.662 18.0341L410.241 11.4545H411.332L413.139 16.6705H413.207L415.014 11.4545H416.105L413.326 18.9545C413.201 19.2926 413.047 19.5724 412.862 19.794C412.677 20.0185 412.463 20.1847 412.218 20.2926C411.977 20.4006 411.704 20.4545 411.4 20.4545ZM425.444 12.9205L424.54 13.1761C424.483 13.0256 424.4 12.8793 424.289 12.7372C424.181 12.5923 424.033 12.473 423.846 12.3793C423.658 12.2855 423.418 12.2386 423.125 12.2386C422.725 12.2386 422.391 12.331 422.124 12.5156C421.86 12.6974 421.728 12.929 421.728 13.2102C421.728 13.4602 421.819 13.6577 422 13.8026C422.182 13.9474 422.466 14.0682 422.853 14.1648L423.824 14.4034C424.409 14.5455 424.846 14.7628 425.132 15.0554C425.419 15.3452 425.563 15.7187 425.563 16.1761C425.563 16.5511 425.455 16.8864 425.239 17.1818C425.026 17.4773 424.728 17.7102 424.344 17.8807C423.961 18.0511 423.515 18.1364 423.006 18.1364C422.338 18.1364 421.786 17.9915 421.348 17.7017C420.911 17.4119 420.634 16.9886 420.517 16.4318L421.472 16.1932C421.563 16.5455 421.735 16.8097 421.988 16.9858C422.243 17.1619 422.577 17.25 422.989 17.25C423.458 17.25 423.83 17.1506 424.105 16.9517C424.384 16.75 424.523 16.5085 424.523 16.2273C424.523 16 424.444 15.8097 424.284 15.6562C424.125 15.5 423.881 15.3835 423.551 15.3068L422.461 15.0511C421.861 14.9091 421.421 14.6889 421.14 14.3906C420.861 14.0895 420.722 13.7131 420.722 13.2614C420.722 12.892 420.826 12.5653 421.033 12.2812C421.243 11.9972 421.529 11.7741 421.89 11.6122C422.253 11.4503 422.665 11.3693 423.125 11.3693C423.773 11.3693 424.282 11.5114 424.651 11.7955C425.023 12.0795 425.287 12.4545 425.444 12.9205ZM428.014 15.6136L427.997 14.3693H428.202L431.065 11.4545H432.31L429.259 14.5398H429.173L428.014 15.6136ZM427.077 18V9.27273H428.082V18H427.077ZM431.236 18L428.679 14.7614L429.395 14.0625L432.514 18H431.236ZM433.604 18V11.4545H434.61V18H433.604ZM434.115 10.3636C433.919 10.3636 433.75 10.2969 433.608 10.1634C433.469 10.0298 433.4 9.86932 433.4 9.68182C433.4 9.49432 433.469 9.33381 433.608 9.20028C433.75 9.06676 433.919 9 434.115 9C434.311 9 434.479 9.06676 434.618 9.20028C434.76 9.33381 434.831 9.49432 434.831 9.68182C434.831 9.86932 434.76 10.0298 434.618 10.1634C434.479 10.2969 434.311 10.3636 434.115 10.3636ZM437.457 14.0625V18H436.452V11.4545H437.423V12.4773H437.509C437.662 12.1449 437.895 11.8778 438.207 11.6761C438.52 11.4716 438.923 11.3693 439.418 11.3693C439.861 11.3693 440.249 11.4602 440.581 11.642C440.913 11.821 441.172 12.0938 441.357 12.4602C441.541 12.8239 441.634 13.2841 441.634 13.8409V18H440.628V13.9091C440.628 13.3949 440.494 12.9943 440.227 12.7074C439.96 12.4176 439.594 12.2727 439.128 12.2727C438.807 12.2727 438.52 12.3423 438.267 12.4815C438.017 12.6207 437.82 12.8239 437.675 13.0909C437.53 13.358 437.457 13.6818 437.457 14.0625ZM448.108 12.9205L447.204 13.1761C447.147 13.0256 447.064 12.8793 446.953 12.7372C446.845 12.5923 446.697 12.473 446.51 12.3793C446.322 12.2855 446.082 12.2386 445.789 12.2386C445.389 12.2386 445.055 12.331 444.788 12.5156C444.524 12.6974 444.392 12.929 444.392 13.2102C444.392 13.4602 444.483 13.6577 444.664 13.8026C444.846 13.9474 445.13 14.0682 445.517 14.1648L446.488 14.4034C447.074 14.5455 447.51 14.7628 447.797 15.0554C448.083 15.3452 448.227 15.7187 448.227 16.1761C448.227 16.5511 448.119 16.8864 447.903 17.1818C447.69 17.4773 447.392 17.7102 447.008 17.8807C446.625 18.0511 446.179 18.1364 445.67 18.1364C445.002 18.1364 444.45 17.9915 444.012 17.7017C443.575 17.4119 443.298 16.9886 443.181 16.4318L444.136 16.1932C444.227 16.5455 444.399 16.8097 444.652 16.9858C444.907 17.1619 445.241 17.25 445.653 17.25C446.122 17.25 446.494 17.1506 446.77 16.9517C447.048 16.75 447.187 16.5085 447.187 16.2273C447.187 16 447.108 15.8097 446.949 15.6562C446.789 15.5 446.545 15.3835 446.216 15.3068L445.125 15.0511C444.525 14.9091 444.085 14.6889 443.804 14.3906C443.525 14.0895 443.386 13.7131 443.386 13.2614C443.386 12.892 443.49 12.5653 443.697 12.2812C443.907 11.9972 444.193 11.7741 444.554 11.6122C444.917 11.4503 445.329 11.3693 445.789 11.3693C446.437 11.3693 446.946 11.5114 447.315 11.7955C447.687 12.0795 447.951 12.4545 448.108 12.9205ZM454.599 18L452.604 11.4545H453.661L455.076 16.4659H455.144L456.542 11.4545H457.616L458.996 16.4489H459.065L460.479 11.4545H461.536L459.542 18H458.553L457.121 12.9716H457.019L455.587 18H454.599ZM462.866 18V11.4545H463.871V18H462.866ZM463.377 10.3636C463.181 10.3636 463.012 10.2969 462.87 10.1634C462.731 10.0298 462.661 9.86932 462.661 9.68182C462.661 9.49432 462.731 9.33381 462.87 9.20028C463.012 9.06676 463.181 9 463.377 9C463.573 9 463.741 9.06676 463.88 9.20028C464.022 9.33381 464.093 9.49432 464.093 9.68182C464.093 9.86932 464.022 10.0298 463.88 10.1634C463.741 10.2969 463.573 10.3636 463.377 10.3636ZM468.56 11.4545V12.3068H465.168V11.4545H468.56ZM466.157 9.88636H467.162V16.125C467.162 16.4091 467.203 16.6222 467.286 16.7642C467.371 16.9034 467.479 16.9972 467.61 17.0455C467.743 17.0909 467.884 17.1136 468.032 17.1136C468.142 17.1136 468.233 17.108 468.304 17.0966C468.375 17.0824 468.432 17.071 468.475 17.0625L468.679 17.9659C468.611 17.9915 468.516 18.017 468.394 18.0426C468.272 18.071 468.117 18.0852 467.929 18.0852C467.645 18.0852 467.367 18.0241 467.094 17.902C466.824 17.7798 466.6 17.5938 466.421 17.3438C466.245 17.0938 466.157 16.7784 466.157 16.3977V9.88636ZM471.219 14.0625V18H470.213V9.27273H471.219V12.4773H471.304C471.458 12.1392 471.688 11.8707 471.995 11.6719C472.304 11.4702 472.716 11.3693 473.23 11.3693C473.676 11.3693 474.067 11.4588 474.402 11.6378C474.738 11.8139 474.998 12.0852 475.182 12.4517C475.37 12.8153 475.463 13.2784 475.463 13.8409V18H474.458V13.9091C474.458 13.3892 474.323 12.9872 474.053 12.7031C473.786 12.4162 473.415 12.2727 472.941 12.2727C472.611 12.2727 472.316 12.3423 472.054 12.4815C471.796 12.6207 471.591 12.8239 471.441 13.0909C471.293 13.358 471.219 13.6818 471.219 14.0625ZM483.337 18.1364C482.724 18.1364 482.195 17.9915 481.752 17.7017C481.309 17.4119 480.968 17.0128 480.729 16.5043C480.491 15.9957 480.371 15.4148 480.371 14.7614C480.371 14.0966 480.494 13.5099 480.738 13.0014C480.985 12.4901 481.329 12.0909 481.769 11.804C482.212 11.5142 482.729 11.3693 483.32 11.3693C483.781 11.3693 484.195 11.4545 484.565 11.625C484.934 11.7955 485.237 12.0341 485.472 12.3409C485.708 12.6477 485.854 13.0057 485.911 13.4148H484.906C484.829 13.1165 484.658 12.8523 484.394 12.6222C484.133 12.3892 483.781 12.2727 483.337 12.2727C482.945 12.2727 482.602 12.375 482.306 12.5795C482.013 12.7812 481.785 13.0668 481.62 13.4361C481.458 13.8026 481.377 14.233 481.377 14.7273C481.377 15.233 481.457 15.6733 481.616 16.0483C481.778 16.4233 482.005 16.7145 482.298 16.9219C482.593 17.1293 482.94 17.233 483.337 17.233C483.599 17.233 483.836 17.1875 484.049 17.0966C484.262 17.0057 484.442 16.875 484.59 16.7045C484.738 16.5341 484.843 16.3295 484.906 16.0909H485.911C485.854 16.4773 485.714 16.8253 485.489 17.1349C485.268 17.4418 484.974 17.6861 484.607 17.8679C484.244 18.0469 483.82 18.1364 483.337 18.1364ZM490.04 18.1364C489.45 18.1364 488.931 17.9957 488.485 17.7145C488.042 17.4332 487.695 17.0398 487.445 16.5341C487.198 16.0284 487.075 15.4375 487.075 14.7614C487.075 14.0795 487.198 13.4844 487.445 12.9759C487.695 12.4673 488.042 12.0724 488.485 11.7912C488.931 11.5099 489.45 11.3693 490.04 11.3693C490.631 11.3693 491.148 11.5099 491.592 11.7912C492.038 12.0724 492.384 12.4673 492.631 12.9759C492.881 13.4844 493.006 14.0795 493.006 14.7614C493.006 15.4375 492.881 16.0284 492.631 16.5341C492.384 17.0398 492.038 17.4332 491.592 17.7145C491.148 17.9957 490.631 18.1364 490.04 18.1364ZM490.04 17.233C490.489 17.233 490.859 17.1179 491.148 16.8878C491.438 16.6577 491.653 16.3551 491.792 15.9801C491.931 15.6051 492.001 15.1989 492.001 14.7614C492.001 14.3239 491.931 13.9162 491.792 13.5384C491.653 13.1605 491.438 12.8551 491.148 12.6222C490.859 12.3892 490.489 12.2727 490.04 12.2727C489.592 12.2727 489.222 12.3892 488.933 12.6222C488.643 12.8551 488.428 13.1605 488.289 13.5384C488.15 13.9162 488.08 14.3239 488.08 14.7614C488.08 15.1989 488.15 15.6051 488.289 15.9801C488.428 16.3551 488.643 16.6577 488.933 16.8878C489.222 17.1179 489.592 17.233 490.04 17.233ZM497.013 18.1364C496.468 18.1364 495.986 17.9986 495.569 17.723C495.151 17.4446 494.824 17.0526 494.588 16.5469C494.353 16.0384 494.235 15.4375 494.235 14.7443C494.235 14.0568 494.353 13.4602 494.588 12.9545C494.824 12.4489 495.152 12.0582 495.573 11.7827C495.993 11.5071 496.479 11.3693 497.03 11.3693C497.456 11.3693 497.793 11.4403 498.04 11.5824C498.29 11.7216 498.48 11.8807 498.611 12.0597C498.745 12.2358 498.848 12.3807 498.922 12.4943H499.007V9.27273H500.013V18H499.042V16.9943H498.922C498.848 17.1136 498.743 17.2642 498.607 17.446C498.471 17.625 498.276 17.7855 498.023 17.9276C497.77 18.0668 497.434 18.1364 497.013 18.1364ZM497.15 17.233C497.553 17.233 497.894 17.1278 498.172 16.9176C498.451 16.7045 498.662 16.4105 498.807 16.0355C498.952 15.6577 499.025 15.2216 499.025 14.7273C499.025 14.2386 498.953 13.8111 498.811 13.4446C498.669 13.0753 498.459 12.7884 498.181 12.5838C497.902 12.3764 497.559 12.2727 497.15 12.2727C496.723 12.2727 496.368 12.3821 496.084 12.6009C495.803 12.8168 495.591 13.1108 495.449 13.483C495.31 13.8523 495.24 14.267 495.24 14.7273C495.24 15.1932 495.311 15.6165 495.453 15.9972C495.598 16.375 495.811 16.6761 496.093 16.9006C496.377 17.1222 496.729 17.233 497.15 17.233ZM504.739 18.1364C504.108 18.1364 503.564 17.9972 503.107 17.7188C502.652 17.4375 502.301 17.0455 502.054 16.5426C501.81 16.0369 501.688 15.4489 501.688 14.7784C501.688 14.108 501.81 13.517 502.054 13.0057C502.301 12.4915 502.645 12.0909 503.086 11.804C503.529 11.5142 504.046 11.3693 504.637 11.3693C504.978 11.3693 505.314 11.4261 505.647 11.5398C505.979 11.6534 506.282 11.8381 506.554 12.0938C506.827 12.3466 507.044 12.6818 507.206 13.0994C507.368 13.517 507.449 14.0312 507.449 14.642V15.0682H502.404V14.1989H506.426C506.426 13.8295 506.353 13.5 506.205 13.2102C506.06 12.9205 505.853 12.6918 505.583 12.5241C505.316 12.3565 505 12.2727 504.637 12.2727C504.236 12.2727 503.89 12.3722 503.597 12.571C503.307 12.767 503.084 13.0227 502.928 13.3381C502.772 13.6534 502.694 13.9915 502.694 14.3523V14.9318C502.694 15.4261 502.779 15.8452 502.949 16.1889C503.123 16.5298 503.363 16.7898 503.669 16.9688C503.976 17.1449 504.333 17.233 504.739 17.233C505.003 17.233 505.242 17.196 505.455 17.1222C505.671 17.0455 505.857 16.9318 506.013 16.7812C506.169 16.6278 506.29 16.4375 506.375 16.2102L507.347 16.483C507.245 16.8125 507.073 17.1023 506.831 17.3523C506.59 17.5994 506.292 17.7926 505.936 17.9318C505.581 18.0682 505.182 18.1364 504.739 18.1364Z" fill="#585696"/>
<path d="M106.082 19.0909V8.18182H106.781V19.0909H106.082ZM107.599 12C107.576 11.7159 107.47 11.4943 107.279 11.3352C107.092 11.1761 106.806 11.0966 106.423 11.0966C106.179 11.0966 105.978 11.1264 105.822 11.1861C105.669 11.2429 105.555 11.321 105.481 11.4205C105.407 11.5199 105.369 11.6335 105.366 11.7614C105.36 11.8665 105.379 11.9616 105.422 12.0469C105.467 12.1293 105.538 12.2045 105.635 12.2727C105.731 12.3381 105.855 12.3977 106.005 12.4517C106.156 12.5057 106.335 12.554 106.542 12.5966L107.258 12.75C107.741 12.8523 108.154 12.9872 108.498 13.1548C108.842 13.3224 109.123 13.5199 109.342 13.7472C109.561 13.9716 109.721 14.2244 109.824 14.5057C109.929 14.7869 109.983 15.0937 109.985 15.4261C109.983 16 109.839 16.4858 109.555 16.8835C109.271 17.2812 108.865 17.5838 108.336 17.7912C107.811 17.9986 107.179 18.1023 106.44 18.1023C105.681 18.1023 105.02 17.9901 104.454 17.7656C103.892 17.5412 103.454 17.196 103.142 16.7301C102.832 16.2614 102.676 15.6619 102.673 14.9318H104.923C104.937 15.1989 105.004 15.4233 105.123 15.6051C105.243 15.7869 105.41 15.9247 105.626 16.0185C105.845 16.1122 106.105 16.1591 106.406 16.1591C106.659 16.1591 106.87 16.1278 107.041 16.0653C107.211 16.0028 107.341 15.9162 107.429 15.8054C107.517 15.6946 107.562 15.5682 107.565 15.4261C107.562 15.2926 107.518 15.1761 107.433 15.0767C107.35 14.9744 107.214 14.8835 107.024 14.804C106.833 14.7216 106.576 14.6449 106.252 14.5739L105.383 14.3864C104.61 14.2187 104.001 13.9389 103.555 13.5469C103.112 13.152 102.892 12.6136 102.895 11.9318C102.892 11.3778 103.039 10.8935 103.338 10.4787C103.639 10.0611 104.055 9.7358 104.586 9.50284C105.12 9.26989 105.733 9.15341 106.423 9.15341C107.127 9.15341 107.737 9.27131 108.251 9.5071C108.765 9.7429 109.162 10.0753 109.44 10.5043C109.721 10.9304 109.863 11.429 109.866 12H107.599ZM114.398 18.1193C113.728 18.1193 113.132 18.0014 112.613 17.7656C112.096 17.527 111.688 17.1989 111.39 16.7812C111.094 16.3636 110.944 15.8835 110.938 15.3409H113.239C113.248 15.642 113.364 15.8821 113.588 16.0611C113.816 16.2401 114.086 16.3295 114.398 16.3295C114.64 16.3295 114.853 16.2784 115.037 16.1761C115.222 16.071 115.367 15.9233 115.472 15.733C115.577 15.5426 115.628 15.321 115.625 15.0682C115.628 14.8125 115.577 14.5909 115.472 14.4034C115.367 14.2131 115.222 14.0668 115.037 13.9645C114.853 13.8594 114.64 13.8068 114.398 13.8068C114.148 13.8068 113.917 13.8679 113.703 13.9901C113.493 14.1094 113.338 14.2756 113.239 14.4886L111.159 14.0795L111.5 9.27273H117.364V11.1648H113.444L113.273 13.0909H113.324C113.461 12.8267 113.696 12.608 114.032 12.4347C114.367 12.2585 114.756 12.1705 115.199 12.1705C115.719 12.1705 116.182 12.2912 116.588 12.5327C116.998 12.7741 117.32 13.108 117.556 13.5341C117.794 13.9574 117.912 14.446 117.909 15C117.912 15.608 117.767 16.1477 117.475 16.6193C117.185 17.0881 116.777 17.456 116.252 17.723C115.726 17.9872 115.108 18.1193 114.398 18.1193ZM121.305 18V9.27273H123.657V12.5966H123.691C123.776 12.375 123.901 12.1719 124.066 11.9872C124.231 11.7997 124.435 11.6506 124.68 11.5398C124.924 11.4261 125.208 11.3693 125.532 11.3693C125.964 11.3693 126.374 11.4844 126.763 11.7145C127.156 11.9446 127.474 12.3068 127.718 12.8011C127.965 13.2955 128.089 13.9375 128.089 14.7273C128.089 15.483 127.971 16.1094 127.735 16.6065C127.502 17.1037 127.19 17.4744 126.798 17.7188C126.408 17.9631 125.981 18.0852 125.515 18.0852C125.208 18.0852 124.934 18.0355 124.692 17.9361C124.454 17.8338 124.249 17.696 124.079 17.5227C123.911 17.3466 123.782 17.1477 123.691 16.9261H123.64V18H121.305ZM123.606 14.7273C123.606 15.0455 123.647 15.321 123.729 15.554C123.815 15.7841 123.934 15.9631 124.087 16.0909C124.244 16.2159 124.43 16.2784 124.646 16.2784C124.862 16.2784 125.045 16.2173 125.195 16.0952C125.349 15.9702 125.465 15.7926 125.545 15.5625C125.627 15.3295 125.668 15.0511 125.668 14.7273C125.668 14.4034 125.627 14.1264 125.545 13.8963C125.465 13.6634 125.349 13.4858 125.195 13.3636C125.045 13.2386 124.862 13.1761 124.646 13.1761C124.43 13.1761 124.244 13.2386 124.087 13.3636C123.934 13.4858 123.815 13.6634 123.729 13.8963C123.647 14.1264 123.606 14.4034 123.606 14.7273ZM132.227 18.1193C131.516 18.1193 130.908 17.9787 130.403 17.6974C129.897 17.4134 129.509 17.0185 129.239 16.5128C128.969 16.0043 128.835 15.4148 128.835 14.7443C128.835 14.0739 128.969 13.4858 129.239 12.9801C129.509 12.4716 129.897 12.0767 130.403 11.7955C130.908 11.5114 131.516 11.3693 132.227 11.3693C132.937 11.3693 133.545 11.5114 134.05 11.7955C134.556 12.0767 134.944 12.4716 135.214 12.9801C135.484 13.4858 135.619 14.0739 135.619 14.7443C135.619 15.4148 135.484 16.0043 135.214 16.5128C134.944 17.0185 134.556 17.4134 134.05 17.6974C133.545 17.9787 132.937 18.1193 132.227 18.1193ZM132.244 16.3807C132.442 16.3807 132.614 16.3139 132.759 16.1804C132.904 16.0469 133.016 15.8565 133.096 15.6094C133.175 15.3622 133.215 15.0682 133.215 14.7273C133.215 14.3835 133.175 14.0895 133.096 13.8452C133.016 13.598 132.904 13.4077 132.759 13.2741C132.614 13.1406 132.442 13.0739 132.244 13.0739C132.033 13.0739 131.853 13.1406 131.702 13.2741C131.552 13.4077 131.437 13.598 131.357 13.8452C131.278 14.0895 131.238 14.3835 131.238 14.7273C131.238 15.0682 131.278 15.3622 131.357 15.6094C131.437 15.8565 131.552 16.0469 131.702 16.1804C131.853 16.3139 132.033 16.3807 132.244 16.3807ZM138.925 14.3182V18H136.573V11.4545H138.806V12.6989H138.874C139.016 12.2841 139.266 11.9588 139.624 11.723C139.985 11.4872 140.406 11.3693 140.886 11.3693C141.349 11.3693 141.751 11.4759 142.092 11.6889C142.435 11.8991 142.701 12.1889 142.888 12.5582C143.079 12.9276 143.173 13.3494 143.17 13.8239V18H140.817V14.3182C140.82 13.9943 140.738 13.7401 140.57 13.5554C140.406 13.3707 140.175 13.2784 139.88 13.2784C139.687 13.2784 139.518 13.321 139.373 13.4062C139.231 13.4886 139.121 13.608 139.045 13.7642C138.968 13.9176 138.928 14.1023 138.925 14.3182ZM148.575 15.1364V11.4545H150.928V18H148.695V16.7557H148.626C148.484 17.1733 148.236 17.5 147.881 17.7358C147.526 17.9687 147.104 18.0852 146.615 18.0852C146.158 18.0852 145.757 17.9801 145.413 17.7699C145.072 17.5597 144.807 17.2699 144.616 16.9006C144.429 16.5312 144.334 16.108 144.331 15.6307V11.4545H146.683V15.1364C146.686 15.4602 146.768 15.7145 146.93 15.8991C147.095 16.0838 147.325 16.1761 147.621 16.1761C147.817 16.1761 147.986 16.1349 148.128 16.0526C148.273 15.9673 148.384 15.848 148.46 15.6946C148.54 15.5384 148.578 15.3523 148.575 15.1364ZM158.107 13.5852H155.942C155.931 13.4517 155.884 13.3366 155.801 13.2401C155.719 13.1435 155.613 13.0696 155.482 13.0185C155.354 12.9645 155.212 12.9375 155.056 12.9375C154.854 12.9375 154.681 12.9744 154.536 13.0483C154.391 13.1222 154.32 13.2273 154.323 13.3636C154.32 13.4602 154.361 13.5497 154.446 13.6321C154.534 13.7145 154.703 13.7784 154.953 13.8239L156.283 14.0625C156.953 14.1847 157.452 14.3906 157.779 14.6804C158.108 14.9673 158.275 15.3523 158.277 15.8352C158.275 16.3011 158.135 16.706 157.86 17.0497C157.587 17.3906 157.213 17.6548 156.739 17.8423C156.267 18.027 155.729 18.1193 155.124 18.1193C154.124 18.1193 153.341 17.9148 152.776 17.5057C152.213 17.0966 151.9 16.5568 151.834 15.8864H154.169C154.201 16.0937 154.303 16.2543 154.476 16.3679C154.652 16.4787 154.874 16.5341 155.141 16.5341C155.357 16.5341 155.534 16.4972 155.674 16.4233C155.816 16.3494 155.888 16.2443 155.891 16.108C155.888 15.983 155.826 15.8835 155.703 15.8097C155.584 15.7358 155.397 15.6761 155.141 15.6307L153.982 15.4261C153.314 15.3097 152.814 15.0881 152.482 14.7614C152.15 14.4347 151.985 14.0142 151.988 13.5C151.985 13.0455 152.104 12.6605 152.346 12.3452C152.59 12.027 152.938 11.7855 153.39 11.6207C153.844 11.4531 154.382 11.3693 155.005 11.3693C155.951 11.3693 156.696 11.5653 157.242 11.9574C157.79 12.3494 158.078 12.892 158.107 13.5852ZM327.902 9.27273V18H325.55V9.27273H327.902ZM332.254 18.1193C331.544 18.1193 330.936 17.9787 330.43 17.6974C329.924 17.4134 329.537 17.0185 329.267 16.5128C328.997 16.0043 328.862 15.4148 328.862 14.7443C328.862 14.0739 328.997 13.4858 329.267 12.9801C329.537 12.4716 329.924 12.0767 330.43 11.7955C330.936 11.5114 331.544 11.3693 332.254 11.3693C332.964 11.3693 333.572 11.5114 334.078 11.7955C334.583 12.0767 334.971 12.4716 335.241 12.9801C335.511 13.4858 335.646 14.0739 335.646 14.7443C335.646 15.4148 335.511 16.0043 335.241 16.5128C334.971 17.0185 334.583 17.4134 334.078 17.6974C333.572 17.9787 332.964 18.1193 332.254 18.1193ZM332.271 16.3807C332.47 16.3807 332.642 16.3139 332.787 16.1804C332.931 16.0469 333.044 15.8565 333.123 15.6094C333.203 15.3622 333.243 15.0682 333.243 14.7273C333.243 14.3835 333.203 14.0895 333.123 13.8452C333.044 13.598 332.931 13.4077 332.787 13.2741C332.642 13.1406 332.47 13.0739 332.271 13.0739C332.061 13.0739 331.88 13.1406 331.73 13.2741C331.579 13.4077 331.464 13.598 331.385 13.8452C331.305 14.0895 331.265 14.3835 331.265 14.7273C331.265 15.0682 331.305 15.3622 331.385 15.6094C331.464 15.8565 331.579 16.0469 331.73 16.1804C331.88 16.3139 332.061 16.3807 332.271 16.3807ZM337.642 18L336.006 11.4545H338.358L339.108 15.4432H339.159L339.995 11.4545H342.279L343.148 15.4091H343.199L343.915 11.4545H346.267L344.631 18H342.091L341.171 14.4886H341.103L340.182 18H337.642ZM353.294 11.4545V13.1591H348.914V11.4545H353.294ZM349.749 18V11.267C349.749 10.7273 349.846 10.2798 350.039 9.92472C350.232 9.5696 350.505 9.30398 350.857 9.12784C351.209 8.9517 351.624 8.86364 352.101 8.86364C352.4 8.86364 352.689 8.88636 352.971 8.93182C353.255 8.97727 353.465 9.01705 353.601 9.05114L353.26 10.7386C353.175 10.7131 353.076 10.6932 352.962 10.679C352.848 10.6619 352.749 10.6534 352.664 10.6534C352.442 10.6534 352.293 10.7003 352.216 10.794C352.14 10.8878 352.101 11.0114 352.101 11.1648V18H349.749ZM357.139 18.1193C356.44 18.1193 355.838 17.9858 355.332 17.7188C354.83 17.4489 354.442 17.0625 354.169 16.5597C353.899 16.054 353.764 15.4489 353.764 14.7443C353.764 14.0682 353.901 13.4773 354.173 12.9716C354.446 12.4659 354.831 12.0724 355.328 11.7912C355.825 11.5099 356.412 11.3693 357.088 11.3693C357.582 11.3693 358.03 11.446 358.43 11.5994C358.831 11.7528 359.173 11.9759 359.457 12.2685C359.741 12.5582 359.96 12.9105 360.114 13.3253C360.267 13.7401 360.344 14.2074 360.344 14.7273V15.2727H354.497V13.9773H358.179C358.176 13.7898 358.128 13.625 358.034 13.483C357.943 13.3381 357.82 13.2259 357.663 13.1463C357.51 13.0639 357.335 13.0227 357.139 13.0227C356.949 13.0227 356.774 13.0639 356.615 13.1463C356.456 13.2259 356.328 13.3366 356.232 13.4787C356.138 13.6207 356.088 13.7869 356.082 13.9773V15.375C356.082 15.5852 356.126 15.7727 356.214 15.9375C356.303 16.1023 356.429 16.2315 356.594 16.3253C356.759 16.419 356.957 16.4659 357.19 16.4659C357.352 16.4659 357.5 16.4432 357.634 16.3977C357.77 16.3523 357.886 16.2869 357.983 16.2017C358.08 16.1136 358.151 16.0085 358.196 15.8864H360.344C360.27 16.3409 360.095 16.7358 359.82 17.071C359.544 17.4034 359.179 17.6619 358.724 17.8466C358.273 18.0284 357.744 18.1193 357.139 18.1193ZM364.44 18.1193C363.741 18.1193 363.139 17.9858 362.633 17.7188C362.13 17.4489 361.743 17.0625 361.47 16.5597C361.2 16.054 361.065 15.4489 361.065 14.7443C361.065 14.0682 361.201 13.4773 361.474 12.9716C361.747 12.4659 362.132 12.0724 362.629 11.7912C363.126 11.5099 363.713 11.3693 364.389 11.3693C364.883 11.3693 365.331 11.446 365.731 11.5994C366.132 11.7528 366.474 11.9759 366.758 12.2685C367.042 12.5582 367.261 12.9105 367.414 13.3253C367.568 13.7401 367.645 14.2074 367.645 14.7273V15.2727H361.798V13.9773H365.48C365.477 13.7898 365.429 13.625 365.335 13.483C365.244 13.3381 365.12 13.2259 364.964 13.1463C364.811 13.0639 364.636 13.0227 364.44 13.0227C364.25 13.0227 364.075 13.0639 363.916 13.1463C363.757 13.2259 363.629 13.3366 363.532 13.4787C363.439 13.6207 363.389 13.7869 363.383 13.9773V15.375C363.383 15.5852 363.427 15.7727 363.515 15.9375C363.603 16.1023 363.73 16.2315 363.895 16.3253C364.059 16.419 364.258 16.4659 364.491 16.4659C364.653 16.4659 364.801 16.4432 364.934 16.3977C365.071 16.3523 365.187 16.2869 365.284 16.2017C365.38 16.1136 365.451 16.0085 365.497 15.8864H367.645C367.571 16.3409 367.396 16.7358 367.12 17.071C366.845 17.4034 366.48 17.6619 366.025 17.8466C365.574 18.0284 365.045 18.1193 364.44 18.1193ZM374.587 13.5852H372.423C372.411 13.4517 372.364 13.3366 372.282 13.2401C372.2 13.1435 372.093 13.0696 371.962 13.0185C371.835 12.9645 371.692 12.9375 371.536 12.9375C371.335 12.9375 371.161 12.9744 371.016 13.0483C370.871 13.1222 370.8 13.2273 370.803 13.3636C370.8 13.4602 370.842 13.5497 370.927 13.6321C371.015 13.7145 371.184 13.7784 371.434 13.8239L372.763 14.0625C373.434 14.1847 373.933 14.3906 374.259 14.6804C374.589 14.9673 374.755 15.3523 374.758 15.8352C374.755 16.3011 374.616 16.706 374.34 17.0497C374.067 17.3906 373.694 17.6548 373.219 17.8423C372.748 18.027 372.21 18.1193 371.604 18.1193C370.604 18.1193 369.822 17.9148 369.256 17.5057C368.694 17.0966 368.38 16.5568 368.315 15.8864H370.65C370.681 16.0937 370.783 16.2543 370.957 16.3679C371.133 16.4787 371.354 16.5341 371.621 16.5341C371.837 16.5341 372.015 16.4972 372.154 16.4233C372.296 16.3494 372.369 16.2443 372.371 16.108C372.369 15.983 372.306 15.8835 372.184 15.8097C372.065 15.7358 371.877 15.6761 371.621 15.6307L370.462 15.4261C369.795 15.3097 369.295 15.0881 368.962 14.7614C368.63 14.4347 368.465 14.0142 368.468 13.5C368.465 13.0455 368.585 12.6605 368.826 12.3452C369.07 12.027 369.418 11.7855 369.87 11.6207C370.325 11.4531 370.863 11.3693 371.485 11.3693C372.431 11.3693 373.177 11.5653 373.722 11.9574C374.271 12.3494 374.559 12.892 374.587 13.5852ZM513.394 9.27273V12.8011H511.86V9.27273H513.394ZM515.61 9.27273V12.8011H514.076V9.27273H515.61ZM515.795 16.6364V14.7955L519.306 9.27273H520.977V11.7273H520.022L518.13 14.7273V14.7955H523.312V16.6364H515.795ZM520.039 18V16.0739L520.091 15.2727V9.27273H522.306V18H520.039ZM528.107 18.2386C527.315 18.2358 526.63 18.0526 526.053 17.6889C525.477 17.3253 525.032 16.8011 524.719 16.1165C524.407 15.4318 524.252 14.6108 524.255 13.6534C524.258 12.6932 524.414 11.8778 524.724 11.2074C525.036 10.5369 525.479 10.027 526.053 9.67756C526.63 9.32812 527.315 9.15341 528.107 9.15341C528.9 9.15341 529.585 9.32955 530.161 9.68182C530.738 10.0312 531.183 10.5412 531.495 11.2116C531.808 11.8821 531.962 12.696 531.96 13.6534C531.96 14.6165 531.803 15.4403 531.491 16.125C531.178 16.8097 530.734 17.3338 530.157 17.6974C529.583 18.0582 528.9 18.2386 528.107 18.2386ZM528.107 16.3125C528.516 16.3125 528.852 16.0994 529.113 15.6733C529.377 15.2443 529.508 14.571 529.505 13.6534C529.505 13.054 529.445 12.5639 529.326 12.1832C529.207 11.8026 529.042 11.5213 528.832 11.3395C528.621 11.1548 528.38 11.0625 528.107 11.0625C527.698 11.0625 527.364 11.2699 527.106 11.6847C526.847 12.0994 526.715 12.7557 526.71 13.6534C526.707 14.2642 526.765 14.767 526.884 15.1619C527.004 15.554 527.168 15.8438 527.379 16.0312C527.592 16.2188 527.835 16.3125 528.107 16.3125ZM541.509 13.6364C541.509 14.608 541.32 15.4276 540.942 16.0952C540.565 16.7599 540.055 17.2642 539.413 17.608C538.771 17.9489 538.055 18.1193 537.265 18.1193C536.469 18.1193 535.751 17.9474 535.109 17.6037C534.469 17.2571 533.961 16.7514 533.583 16.0866C533.208 15.419 533.021 14.6023 533.021 13.6364C533.021 12.6648 533.208 11.8466 533.583 11.1818C533.961 10.5142 534.469 10.0099 535.109 9.66903C535.751 9.32528 536.469 9.15341 537.265 9.15341C538.055 9.15341 538.771 9.32528 539.413 9.66903C540.055 10.0099 540.565 10.5142 540.942 11.1818C541.32 11.8466 541.509 12.6648 541.509 13.6364ZM539.072 13.6364C539.072 13.1136 539.002 12.6733 538.863 12.3153C538.727 11.9545 538.523 11.6818 538.254 11.4972C537.987 11.3097 537.657 11.2159 537.265 11.2159C536.873 11.2159 536.542 11.3097 536.272 11.4972C536.005 11.6818 535.802 11.9545 535.663 12.3153C535.526 12.6733 535.458 13.1136 535.458 13.6364C535.458 14.1591 535.526 14.6009 535.663 14.9616C535.802 15.3196 536.005 15.5923 536.272 15.7798C536.542 15.9645 536.873 16.0568 537.265 16.0568C537.657 16.0568 537.987 15.9645 538.254 15.7798C538.523 15.5923 538.727 15.3196 538.863 14.9616C539.002 14.6009 539.072 14.1591 539.072 13.6364ZM542.605 18V9.27273H548.742V11.1818H544.975V12.6818H548.367V14.5909H544.975V18H542.605ZM549.613 18V9.27273H555.75V11.1818H551.983V12.6818H555.375V14.5909H551.983V18H549.613ZM558.019 9.27273V12.8011H556.485V9.27273H558.019ZM560.235 9.27273V12.8011H558.701V9.27273H560.235Z" fill="url(#paint1_linear_19684_22711)"/>
<path fill-rule="evenodd" clip-rule="evenodd" d="M587.906 14.7612H591.289V16.5013H587.906V18.5637H593.06V12.9996H589.638V11.3669H593.06V9.43341H587.906V14.7612ZM596.354 9.43341H594.493V18.5637H596.354V9.43341ZM601.317 12.9996V9.43341H603.088V18.5637H601.357V14.6323H599.676V18.5637H597.965V9.43341H599.706V12.9996H601.317Z" fill="white"/>
<path fill-rule="evenodd" clip-rule="evenodd" d="M583 13.0014H586.453V14.9993H583V13.0014ZM604.547 13.0001H608V14.998H604.547V13.0001ZM594.489 4H596.35V7.70581H594.489V4ZM594.489 20.2942H596.35V24H594.489V20.2942Z" fill="#0D91EC"/>
<path fill-rule="evenodd" clip-rule="evenodd" d="M584.715 11.294V9.27458C584.715 7.38408 586.156 5.83731 587.917 5.83731H592.981V7.70633H587.917C587.107 7.70633 586.456 8.41527 586.456 9.27458V11.294H584.715ZM598.015 5.83731H602.739C604.69 5.83731 606.271 7.54521 606.281 9.63979V11.294H604.54V9.63979C604.54 8.57639 603.73 7.70633 602.739 7.70633H598.015V5.83731ZM604.54 18.3387C604.54 19.4022 603.73 20.2722 602.739 20.2722H598.015V22.1412H602.739C604.69 22.1412 606.281 20.4333 606.281 18.3387V16.6846H604.54V18.3387ZM586.456 16.6846V18.3387C586.456 19.4129 587.267 20.2722 588.257 20.2722H592.981V22.1412H588.257C586.306 22.1412 584.715 20.4333 584.715 18.3387V16.6846H586.456Z" fill="white"/>
<path d="M613.84 18V11.52H614.632V13.08L614.476 12.876C614.548 12.684 614.642 12.508 614.758 12.348C614.874 12.184 615 12.05 615.136 11.946C615.304 11.798 615.5 11.686 615.724 11.61C615.948 11.53 616.174 11.484 616.402 11.472C616.63 11.456 616.838 11.472 617.026 11.52V12.348C616.79 12.288 616.532 12.274 616.252 12.306C615.972 12.338 615.714 12.45 615.478 12.642C615.262 12.81 615.1 13.012 614.992 13.248C614.884 13.48 614.812 13.728 614.776 13.992C614.74 14.252 614.722 14.51 614.722 14.766V18H613.84ZM620.789 18.18C620.157 18.18 619.609 18.04 619.145 17.76C618.685 17.48 618.327 17.086 618.071 16.578C617.815 16.07 617.687 15.474 617.687 14.79C617.687 14.082 617.813 13.47 618.065 12.954C618.317 12.438 618.671 12.04 619.127 11.76C619.587 11.48 620.129 11.34 620.753 11.34C621.393 11.34 621.939 11.488 622.391 11.784C622.843 12.076 623.185 12.496 623.417 13.044C623.649 13.592 623.755 14.246 623.735 15.006H622.835V14.694C622.819 13.854 622.637 13.22 622.289 12.792C621.945 12.364 621.441 12.15 620.777 12.15C620.081 12.15 619.547 12.376 619.175 12.828C618.807 13.28 618.623 13.924 618.623 14.76C618.623 15.576 618.807 16.21 619.175 16.662C619.547 17.11 620.073 17.334 620.753 17.334C621.217 17.334 621.621 17.228 621.965 17.016C622.313 16.8 622.587 16.49 622.787 16.086L623.609 16.404C623.353 16.968 622.975 17.406 622.475 17.718C621.979 18.026 621.417 18.18 620.789 18.18ZM618.311 15.006V14.268H623.261V15.006H618.311ZM627.755 18.18C627.103 18.18 626.551 18.034 626.099 17.742C625.647 17.45 625.303 17.048 625.067 16.536C624.835 16.02 624.715 15.428 624.707 14.76C624.715 14.08 624.839 13.484 625.079 12.972C625.319 12.456 625.665 12.056 626.117 11.772C626.569 11.484 627.117 11.34 627.761 11.34C628.417 11.34 628.987 11.5 629.471 11.82C629.959 12.14 630.293 12.578 630.473 13.134L629.609 13.41C629.457 13.022 629.215 12.722 628.883 12.51C628.555 12.294 628.179 12.186 627.755 12.186C627.279 12.186 626.885 12.296 626.573 12.516C626.261 12.732 626.029 13.034 625.877 13.422C625.725 13.81 625.647 14.256 625.643 14.76C625.651 15.536 625.831 16.16 626.183 16.632C626.535 17.1 627.059 17.334 627.755 17.334C628.195 17.334 628.569 17.234 628.877 17.034C629.189 16.83 629.425 16.534 629.585 16.146L630.473 16.41C630.233 16.986 629.881 17.426 629.417 17.73C628.953 18.03 628.399 18.18 627.755 18.18ZM634.241 18.18C633.597 18.18 633.047 18.034 632.591 17.742C632.135 17.45 631.785 17.046 631.541 16.53C631.297 16.014 631.175 15.422 631.175 14.754C631.175 14.074 631.299 13.478 631.547 12.966C631.795 12.454 632.147 12.056 632.603 11.772C633.063 11.484 633.609 11.34 634.241 11.34C634.889 11.34 635.441 11.486 635.897 11.778C636.357 12.066 636.707 12.468 636.947 12.984C637.191 13.496 637.313 14.086 637.313 14.754C637.313 15.434 637.191 16.032 636.947 16.548C636.703 17.06 636.351 17.46 635.891 17.748C635.431 18.036 634.881 18.18 634.241 18.18ZM634.241 17.334C634.961 17.334 635.497 17.096 635.849 16.62C636.201 16.14 636.377 15.518 636.377 14.754C636.377 13.97 636.199 13.346 635.843 12.882C635.491 12.418 634.957 12.186 634.241 12.186C633.757 12.186 633.357 12.296 633.041 12.516C632.729 12.732 632.495 13.034 632.339 13.422C632.187 13.806 632.111 14.25 632.111 14.754C632.111 15.534 632.291 16.16 632.651 16.632C633.011 17.1 633.541 17.334 634.241 17.334ZM646.365 18L646.371 13.746C646.371 13.246 646.231 12.854 645.951 12.57C645.675 12.282 645.323 12.138 644.895 12.138C644.651 12.138 644.413 12.194 644.181 12.306C643.949 12.418 643.757 12.598 643.605 12.846C643.457 13.094 643.383 13.418 643.383 13.818L642.861 13.668C642.849 13.204 642.939 12.798 643.131 12.45C643.327 12.102 643.595 11.832 643.935 11.64C644.279 11.444 644.667 11.346 645.099 11.346C645.751 11.346 646.273 11.548 646.665 11.952C647.057 12.352 647.253 12.894 647.253 13.578L647.247 18H646.365ZM638.631 18V11.52H639.423V13.116H639.519V18H638.631ZM642.507 18L642.513 13.806C642.513 13.29 642.375 12.884 642.099 12.588C641.827 12.288 641.467 12.138 641.019 12.138C640.571 12.138 640.209 12.292 639.933 12.6C639.657 12.904 639.519 13.31 639.519 13.818L638.991 13.53C638.991 13.114 639.089 12.742 639.285 12.414C639.481 12.082 639.749 11.822 640.089 11.634C640.429 11.442 640.815 11.346 641.247 11.346C641.659 11.346 642.025 11.434 642.345 11.61C642.669 11.786 642.923 12.042 643.107 12.378C643.291 12.714 643.383 13.122 643.383 13.602L643.377 18H642.507ZM656.537 18L656.543 13.746C656.543 13.246 656.403 12.854 656.123 12.57C655.847 12.282 655.495 12.138 655.067 12.138C654.823 12.138 654.585 12.194 654.353 12.306C654.121 12.418 653.929 12.598 653.777 12.846C653.629 13.094 653.555 13.418 653.555 13.818L653.033 13.668C653.021 13.204 653.111 12.798 653.303 12.45C653.499 12.102 653.767 11.832 654.107 11.64C654.451 11.444 654.839 11.346 655.271 11.346C655.923 11.346 656.445 11.548 656.837 11.952C657.229 12.352 657.425 12.894 657.425 13.578L657.419 18H656.537ZM648.803 18V11.52H649.595V13.116H649.691V18H648.803ZM652.679 18L652.685 13.806C652.685 13.29 652.547 12.884 652.271 12.588C651.999 12.288 651.639 12.138 651.191 12.138C650.743 12.138 650.381 12.292 650.105 12.6C649.829 12.904 649.691 13.31 649.691 13.818L649.163 13.53C649.163 13.114 649.261 12.742 649.457 12.414C649.653 12.082 649.921 11.822 650.261 11.634C650.601 11.442 650.987 11.346 651.419 11.346C651.831 11.346 652.197 11.434 652.517 11.61C652.841 11.786 653.095 12.042 653.279 12.378C653.463 12.714 653.555 13.122 653.555 13.602L653.549 18H652.679ZM661.687 18.18C661.055 18.18 660.507 18.04 660.043 17.76C659.583 17.48 659.225 17.086 658.969 16.578C658.713 16.07 658.585 15.474 658.585 14.79C658.585 14.082 658.711 13.47 658.963 12.954C659.215 12.438 659.569 12.04 660.025 11.76C660.485 11.48 661.027 11.34 661.651 11.34C662.291 11.34 662.837 11.488 663.289 11.784C663.741 12.076 664.083 12.496 664.315 13.044C664.547 13.592 664.653 14.246 664.633 15.006H663.733V14.694C663.717 13.854 663.535 13.22 663.187 12.792C662.843 12.364 662.339 12.15 661.675 12.15C660.979 12.15 660.445 12.376 660.073 12.828C659.705 13.28 659.521 13.924 659.521 14.76C659.521 15.576 659.705 16.21 660.073 16.662C660.445 17.11 660.971 17.334 661.651 17.334C662.115 17.334 662.519 17.228 662.863 17.016C663.211 16.8 663.485 16.49 663.685 16.086L664.507 16.404C664.251 16.968 663.873 17.406 663.373 17.718C662.877 18.026 662.315 18.18 661.687 18.18ZM659.209 15.006V14.268H664.159V15.006H659.209ZM670.469 18V14.694C670.469 14.334 670.435 14.004 670.367 13.704C670.299 13.4 670.189 13.136 670.037 12.912C669.889 12.684 669.695 12.508 669.455 12.384C669.219 12.26 668.931 12.198 668.591 12.198C668.279 12.198 668.003 12.252 667.763 12.36C667.527 12.468 667.327 12.624 667.163 12.828C667.003 13.028 666.881 13.272 666.797 13.56C666.713 13.848 666.671 14.176 666.671 14.544L666.047 14.406C666.047 13.742 666.163 13.184 666.395 12.732C666.627 12.28 666.947 11.938 667.355 11.706C667.763 11.474 668.231 11.358 668.759 11.358C669.147 11.358 669.485 11.418 669.773 11.538C670.065 11.658 670.311 11.82 670.511 12.024C670.715 12.228 670.879 12.462 671.003 12.726C671.127 12.986 671.217 13.264 671.273 13.56C671.329 13.852 671.357 14.144 671.357 14.436V18H670.469ZM665.783 18V11.52H666.581V13.116H666.671V18H665.783ZM675.393 18.18C674.789 18.18 674.273 18.03 673.845 17.73C673.417 17.426 673.089 17.016 672.861 16.5C672.633 15.984 672.519 15.402 672.519 14.754C672.519 14.11 672.631 13.53 672.855 13.014C673.083 12.498 673.409 12.09 673.833 11.79C674.257 11.49 674.765 11.34 675.357 11.34C675.965 11.34 676.477 11.488 676.893 11.784C677.309 12.08 677.623 12.486 677.835 13.002C678.051 13.514 678.159 14.098 678.159 14.754C678.159 15.398 678.053 15.98 677.841 16.5C677.629 17.016 677.317 17.426 676.905 17.73C676.493 18.03 675.989 18.18 675.393 18.18ZM675.483 17.358C675.943 17.358 676.323 17.246 676.623 17.022C676.923 16.798 677.147 16.49 677.295 16.098C677.443 15.702 677.517 15.254 677.517 14.754C677.517 14.246 677.443 13.798 677.295 13.41C677.147 13.018 676.923 12.712 676.623 12.492C676.327 12.272 675.953 12.162 675.501 12.162C675.037 12.162 674.653 12.276 674.349 12.504C674.045 12.732 673.819 13.042 673.671 13.434C673.527 13.826 673.455 14.266 673.455 14.754C673.455 15.246 673.529 15.69 673.677 16.086C673.829 16.478 674.055 16.788 674.355 17.016C674.655 17.244 675.031 17.358 675.483 17.358ZM677.517 18V13.122H677.421V9.36H678.309V18H677.517ZM682.734 18.18C682.102 18.18 681.554 18.04 681.09 17.76C680.63 17.48 680.272 17.086 680.016 16.578C679.76 16.07 679.632 15.474 679.632 14.79C679.632 14.082 679.758 13.47 680.01 12.954C680.262 12.438 680.616 12.04 681.072 11.76C681.532 11.48 682.074 11.34 682.698 11.34C683.338 11.34 683.884 11.488 684.336 11.784C684.788 12.076 685.13 12.496 685.362 13.044C685.594 13.592 685.7 14.246 685.68 15.006H684.78V14.694C684.764 13.854 684.582 13.22 684.234 12.792C683.89 12.364 683.386 12.15 682.722 12.15C682.026 12.15 681.492 12.376 681.12 12.828C680.752 13.28 680.568 13.924 680.568 14.76C680.568 15.576 680.752 16.21 681.12 16.662C681.492 17.11 682.018 17.334 682.698 17.334C683.162 17.334 683.566 17.228 683.91 17.016C684.258 16.8 684.532 16.49 684.732 16.086L685.554 16.404C685.298 16.968 684.92 17.406 684.42 17.718C683.924 18.026 683.362 18.18 682.734 18.18ZM680.256 15.006V14.268H685.206V15.006H680.256ZM689.526 18.18C688.922 18.18 688.406 18.03 687.978 17.73C687.55 17.426 687.222 17.016 686.994 16.5C686.766 15.984 686.652 15.402 686.652 14.754C686.652 14.11 686.764 13.53 686.988 13.014C687.216 12.498 687.542 12.09 687.966 11.79C688.39 11.49 688.898 11.34 689.49 11.34C690.098 11.34 690.61 11.488 691.026 11.784C691.442 12.08 691.756 12.486 691.968 13.002C692.184 13.514 692.292 14.098 692.292 14.754C692.292 15.398 692.186 15.98 691.974 16.5C691.762 17.016 691.45 17.426 691.038 17.73C690.626 18.03 690.122 18.18 689.526 18.18ZM689.616 17.358C690.076 17.358 690.456 17.246 690.756 17.022C691.056 16.798 691.28 16.49 691.428 16.098C691.576 15.702 691.65 15.254 691.65 14.754C691.65 14.246 691.576 13.798 691.428 13.41C691.28 13.018 691.056 12.712 690.756 12.492C690.46 12.272 690.086 12.162 689.634 12.162C689.17 12.162 688.786 12.276 688.482 12.504C688.178 12.732 687.952 13.042 687.804 13.434C687.66 13.826 687.588 14.266 687.588 14.754C687.588 15.246 687.662 15.69 687.81 16.086C687.962 16.478 688.188 16.788 688.488 17.016C688.788 17.244 689.164 17.358 689.616 17.358ZM691.65 18V13.122H691.554V9.36H692.442V18H691.65Z" fill="white"/>
<defs>
<linearGradient id="paint0_linear_19684_22711" x1="352" y1="0" x2="352" y2="28" gradientUnits="userSpaceOnUse">
<stop stop-color="#EDEDF6"/>
<stop offset="1" stop-color="#A4A4E0"/>
</linearGradient>
<linearGradient id="paint1_linear_19684_22711" x1="338.157" y1="9.5" x2="338.157" y2="18" gradientUnits="userSpaceOnUse">
<stop stop-color="#3A35FA"/>
<stop offset="1" stop-color="#2F2BCA"/>
</linearGradient>
</defs>
</svg>
