<svg width="24" height="24" viewBox="0 0 24 24" fill="none" xmlns="http://www.w3.org/2000/svg">
<path opacity="0.43" d="M16.5021 4.20419C12.2008 1.72217 6.69539 3.2003 4.20889 7.50444C1.72239 11.8089 3.19478 17.3134 7.49566 19.7958C11.7973 22.2778 17.3027 20.7997 19.7896 16.4956C22.2757 12.1911 20.8116 6.69089 16.5021 4.20419ZM9.72909 15.9296C7.56262 14.6796 6.81959 11.9021 8.07202 9.73387C9.32481 7.56561 12.1025 6.82007 14.269 8.07007C16.4358 9.32044 17.1785 12.0979 15.9261 14.2661C14.6733 16.4344 11.9038 17.1846 9.72909 15.9296Z" fill="url(#paint0_linear_14093_76572)"/>
<path d="M13.5 14L10.3658 11.0144L6.5347 9.02886C5.81053 8.65378 5.82194 7.71096 6.56895 7.35159L17.4228 2.11994C18.3689 1.66185 19.3902 2.60502 18.8499 3.44502L13.5 14Z" fill="#F95043"/>
<path d="M9.5 10.5L17.4655 14.9711C18.1893 15.3462 18.1782 16.289 17.4309 16.6484L6.57714 21.8801C5.63112 22.3381 4.60976 21.395 5.15012 20.5553L9.5 10.5Z" fill="#F95043"/>
<path d="M14.0008 13L9.05078 11.5L9.50083 10.5L14.0008 13Z" fill="#D13733"/>
<defs>
<linearGradient id="paint0_linear_14093_76572" x1="12.1033" y1="0.811111" x2="11.9378" y2="21.6053" gradientUnits="userSpaceOnUse">
<stop stop-color="#DB2F36"/>
<stop offset="1" stop-color="#5474BF"/>
</linearGradient>
</defs>
</svg>
