<svg width="72" height="20" viewBox="0 0 72 20" fill="none" xmlns="http://www.w3.org/2000/svg">
<g clip-path="url(#clip0_14093_76591)">
<path d="M26.9881 14.2442C28.5074 14.2442 29.5739 13.4594 29.5739 12.0606C29.5739 10.8132 28.769 10.3 27.3403 9.92774C26.1229 9.61613 25.821 9.46516 25.821 9.00226C25.821 8.64 26.1329 8.36839 26.7265 8.36839C27.32 8.36839 27.9339 8.63 28.5577 9.06258L29.3626 7.89548C28.6481 7.32194 27.7729 7 26.7465 7C25.3077 7 24.2819 7.84516 24.2819 9.1229C24.2819 10.5416 25.1971 10.9339 26.6158 11.2961C27.7932 11.5981 28.0345 11.7994 28.0345 12.1916C28.0345 12.6242 27.6523 12.8755 27.0184 12.8755C26.2135 12.8755 25.5494 12.5439 24.9155 12.0206L24 13.1174C24.8452 13.8719 25.9216 14.2442 26.9881 14.2442ZM30.9184 14H32.4677V11.9903L33.2829 11.1452L35.4661 14H37.3274L34.329 10.0887L37 7H35.5L32.4677 10.1794V7H30.9184V14ZM38.3381 14H39.8874V7H38.3381V14ZM41.6474 14H43.1768V9.66613L46.5874 14H47.9055V7H46.3761V11.4371L43.0761 7H41.6474V14Z" fill="white"/>
<path d="M52.7326 14.2842C54.9058 14.2842 56.4855 12.6442 56.4855 10.6423C56.4855 8.61968 54.9261 7 52.7529 7C50.5797 7 49 8.64 49 10.6419C49 12.6645 50.5597 14.2842 52.7326 14.2842ZM52.7529 12.8555C51.5052 12.8555 50.62 11.8494 50.62 10.6423C50.62 9.41484 51.4852 8.42871 52.7326 8.42871C53.9803 8.42871 54.8658 9.43484 54.8658 10.6423C54.8658 11.8697 54.0003 12.8555 52.7529 12.8555ZM60.7977 14.2742C62.6894 14.2742 63.8868 13.2277 63.8868 11.0948V7H62.3371V11.1552C62.3371 12.2719 61.7639 12.8455 60.8181 12.8455C59.8723 12.8455 59.2987 12.2519 59.2987 11.1048V7.00032H57.7494V11.1452C57.7494 13.2177 58.9065 14.2742 60.7977 14.2742ZM67.1052 14.1635H68.6545V8.54935H70.7974V7H64.9619V8.54968H67.1052V14.1635Z" fill="#D92948"/>
<path opacity="0.43" d="M12.7523 2.63725C8.68967 0.293083 3.48983 1.68935 1.14157 5.75439C-1.20637 9.81975 0.183583 15.0185 4.24624 17.3627C8.30858 19.7068 13.5084 18.3109 15.8567 14.2455C18.2049 10.1805 16.8223 4.9859 12.7523 2.63725ZM6.35517 13.7115C4.30896 12.5307 3.60758 9.90738 4.79051 7.85967C5.97312 5.81228 8.59688 5.10775 10.6431 6.28847C12.6893 7.46951 13.3907 10.0925 12.2077 12.1403C11.0251 14.188 8.40905 14.8967 6.35549 13.7115H6.35517Z" fill="url(#paint0_linear_14093_76591)"/>
<path d="M10.5007 11.0381L3.59872 7.05361C2.94646 6.67684 2.95679 5.73103 3.63001 5.37039L13.4061 0.120386C14.2581 -0.339291 15.1781 0.606838 14.6916 1.44974L10.5007 11.0381Z" fill="#D92948"/>
<path d="M6.64229 8.80957L13.5446 12.7938C14.1968 13.1705 14.1865 14.1163 13.5136 14.477L3.73713 19.7273C2.88487 20.187 1.96487 19.2409 2.45165 18.398L6.64229 8.80957Z" fill="#D92948"/>
<path d="M10.504 11.0376L6.23047 9.7344L6.64337 8.80859L10.504 11.0376Z" fill="#8E221F"/>
</g>
<defs>
<linearGradient id="paint0_linear_14093_76591" x1="8.59751" y1="-0.567193" x2="8.44121" y2="19.0717" gradientUnits="userSpaceOnUse">
<stop stop-color="#DB2F36"/>
<stop offset="1" stop-color="#5474BF"/>
</linearGradient>
<clipPath id="clip0_14093_76591">
<rect width="71.2903" height="20" fill="white"/>
</clipPath>
</defs>
</svg>
